<svg width="44" height="44" viewBox="0 0 44 44" fill="currentColor" xmlns="http://www.w3.org/2000/svg">
<path fill-rule="evenodd" clip-rule="evenodd" d="M22.0001 0C9.84503 0 0 9.845 0 22C0 31.735 6.29752 39.9575 15.0425 42.8725C16.1425 43.065 16.555 42.405 16.555 41.8275C16.555 41.305 16.5275 39.5725 16.5275 37.73C11 38.7475 9.57003 36.3825 9.13003 35.145C8.88252 34.5125 7.81002 32.56 6.87502 32.0375C6.10502 31.625 5.00501 30.6075 6.84752 30.58C8.58002 30.5525 9.81753 32.175 10.23 32.835C12.21 36.1625 15.3725 35.2275 16.6375 34.65C16.83 33.22 17.4075 32.2575 18.04 31.7075C13.145 31.1575 8.03002 29.26 8.03002 20.845C8.03002 18.4525 8.88252 16.4725 10.285 14.9325C10.065 14.3825 9.29503 12.1275 10.505 9.1025C10.505 9.1025 12.3475 8.525 16.555 11.3575C18.315 10.8625 20.1851 10.615 22.0551 10.615C23.9251 10.615 25.7951 10.8625 27.5551 11.3575C31.7626 8.4975 33.6051 9.1025 33.6051 9.1025C34.8151 12.1275 34.0451 14.3825 33.8251 14.9325C35.2276 16.4725 36.0801 18.425 36.0801 20.845C36.0801 29.2875 30.9376 31.1575 26.0426 31.7075C26.8401 32.395 27.5276 33.715 27.5276 35.7775C27.5276 38.72 27.5001 41.085 27.5001 41.8275C27.5001 42.405 27.9126 43.0925 29.0126 42.8725C33.3799 41.398 37.1749 38.5911 39.8635 34.8468C42.5521 31.1026 43.9988 26.6095 44.0001 22C44.0001 9.845 34.1551 0 22.0001 0Z" fill="#490fee"/>
</svg>
