<svg width="29" height="29" viewBox="0 0 29 29" fill="currentColor" xmlns="http://www.w3.org/2000/svg">
<path d="M21.7498 21.1458V22.6562C21.7498 23.3773 21.4634 24.0688 20.9535 24.5787C20.4437 25.0886 19.7521 25.375 19.0311 25.375H9.96859C9.24753 25.375 8.55601 25.0886 8.04614 24.5787C7.53628 24.0688 7.24984 23.3773 7.24984 22.6562V21.1446L5.13525 21.1458C4.4142 21.1458 3.72267 20.8594 3.21281 20.3495C2.70294 19.8397 2.4165 19.1481 2.4165 18.4271V11.1819C2.4165 10.1404 2.83025 9.14152 3.56672 8.40505C4.30319 7.66858 5.30206 7.25483 6.34359 7.25483L7.24863 7.25362L7.24984 6.34375C7.24984 5.62269 7.53628 4.93117 8.04614 4.4213C8.55601 3.91144 9.24753 3.625 9.96859 3.625H19.0335C19.7546 3.625 20.4461 3.91144 20.956 4.4213C21.4658 4.93117 21.7523 5.62269 21.7523 6.34375V7.25362H22.6585C23.7001 7.25426 24.6988 7.66814 25.4355 8.4044C26.1722 9.14066 26.5867 10.1392 26.588 11.1807L26.5916 18.4271C26.5918 18.784 26.5217 19.1374 26.3852 19.4671C26.2488 19.7969 26.0488 20.0966 25.7965 20.349C25.5443 20.6015 25.2448 20.8018 24.9152 20.9385C24.5855 21.0752 24.2322 21.1457 23.8753 21.1458H21.7498ZM19.0311 16.3125H9.96859C9.72824 16.3125 9.49773 16.408 9.32777 16.5779C9.15782 16.7479 9.06234 16.9784 9.06234 17.2188V22.6562C9.06234 23.1565 9.46834 23.5625 9.96859 23.5625H19.0311C19.2714 23.5625 19.5019 23.467 19.6719 23.2971C19.8419 23.1271 19.9373 22.8966 19.9373 22.6562V17.2188C19.9373 16.9784 19.8419 16.7479 19.6719 16.5779C19.5019 16.408 19.2714 16.3125 19.0311 16.3125ZM19.0335 5.4375H9.96859C9.72824 5.4375 9.49773 5.53298 9.32777 5.70293C9.15782 5.87289 9.06234 6.1034 9.06234 6.34375L9.06113 7.25362H19.9398V6.34375C19.9398 6.1034 19.8443 5.87289 19.6743 5.70293C19.5044 5.53298 19.2739 5.4375 19.0335 5.4375Z" fill="white"/>
</svg>
