<svg width="294" height="488" viewBox="0 0 294 488" fill="none" xmlns="http://www.w3.org/2000/svg">
<path d="M0 442H294V456C294 470.912 281.912 483 267 483H27C12.0883 483 0 470.912 0 456V442Z" fill="#F0F0F0"/>
<rect x="2.5" y="2.5" width="289" height="483" rx="24.5" stroke="#8F70E7" stroke-width="5"/>
<path d="M126.036 12.5L121.036 7.5H171.964L166.964 12.5H126.036Z" fill="#8F70E7" stroke="#8F70E7" stroke-width="5"/>
<path d="M52.4375 457.125H67.5625V458.5H52.4375V457.125Z" fill="#AEAEAE"/>
<path d="M52.4375 463.312H67.5625V464.688H52.4375V463.312Z" fill="#AEAEAE"/>
<path d="M52.4375 469.5H67.5625V470.875H52.4375V469.5Z" fill="#AEAEAE"/>
<path d="M237.698 456.548L236.075 454.925L227 464L236.075 473.075L237.698 471.453L230.245 464L237.698 456.548Z" fill="#AEAEAE"/>
<circle cx="147" cy="464" r="9" stroke="#AEAEAE" stroke-width="2"/>
<path d="M65.0714 380H28.9286C27.6214 380 26.3678 380.519 25.4435 381.444C24.5193 382.368 24 383.621 24 384.929V421.071C24 422.379 24.5193 423.632 25.4435 424.556C26.3678 425.481 27.6214 426 28.9286 426H65.0714C66.3786 426 67.6322 425.481 68.5565 424.556C69.4807 423.632 70 422.379 70 421.071V384.929C70 383.621 69.4807 382.368 68.5565 381.444C67.6322 380.519 66.3786 380 65.0714 380V380ZM63.3885 411.56L61.8483 418.234C61.7701 418.574 61.5792 418.877 61.3068 419.093C61.0343 419.31 60.6964 419.428 60.3482 419.429C43.9196 419.429 30.5714 406.11 30.5714 389.652C30.5837 389.307 30.7063 388.975 30.9212 388.705C31.1362 388.435 31.4322 388.241 31.7656 388.152L38.4397 386.611C38.5535 386.587 38.6694 386.574 38.7857 386.571C39.0836 386.586 39.3719 386.681 39.6209 386.845C39.8699 387.009 40.0704 387.237 40.2017 387.505L43.282 394.692C43.3575 394.886 43.3995 395.091 43.4063 395.299C43.3812 395.755 43.1784 396.183 42.8415 396.491L38.951 399.674C41.3083 404.67 45.3295 408.692 50.3258 411.049L53.5088 407.158C53.817 406.822 54.245 406.619 54.7009 406.594C54.9088 406.6 55.114 406.642 55.3077 406.718L62.4952 409.798C62.7632 409.929 62.9911 410.13 63.1552 410.379C63.3194 410.628 63.4138 410.916 63.4286 411.214C63.4265 411.331 63.4131 411.447 63.3885 411.56Z" fill="#3BCE6D"/>
<g clip-path="url(#clip0_913_568)">
<path fill-rule="evenodd" clip-rule="evenodd" d="M249.946 412.828C247.659 412.824 245.467 411.914 243.85 410.297C242.233 408.679 241.323 406.487 241.32 404.2C241.323 401.912 242.232 399.719 243.85 398.101C245.467 396.484 247.66 395.573 249.948 395.57C252.236 395.573 254.43 396.483 256.047 398.101C257.665 399.719 258.575 401.912 258.578 404.2C258.575 406.488 257.665 408.681 256.047 410.298C254.429 411.916 252.236 412.825 249.948 412.828H249.946Z" fill="#4285F4"/>
<path fill-rule="evenodd" clip-rule="evenodd" d="M253.582 414.362C251.782 415.015 249.843 415.188 247.956 414.863C246.07 414.538 244.3 413.727 242.822 412.51C241.229 411.196 240.038 409.46 239.386 407.5L239.382 407.488L229.872 391.02C226.462 396.238 225.236 402.587 226.46 408.7C227.061 411.788 228.268 414.726 230.012 417.345C231.756 419.963 234.002 422.209 236.62 423.954C239.369 425.802 242.473 427.055 245.734 427.634L253.582 414.364V414.362Z" fill="#4AAE48"/>
<path fill-rule="evenodd" clip-rule="evenodd" d="M271.52 393.414C269.721 389.795 267.043 386.685 263.731 384.369C260.419 382.053 256.579 380.605 252.562 380.157C248.545 379.709 244.481 380.276 240.74 381.806C236.999 383.336 233.702 385.78 231.15 388.914L239.182 402.826C239.513 400.25 240.761 397.88 242.699 396.151C244.637 394.422 247.133 393.45 249.73 393.414H271.52Z" fill="#EA3939"/>
<path fill-rule="evenodd" clip-rule="evenodd" d="M249.852 428C255.872 428 261.634 425.742 266.072 421.644C270.527 417.541 273.255 411.898 273.704 405.858C273.962 402.361 273.455 398.85 272.216 395.57H256.504C257.813 396.606 258.87 397.925 259.594 399.429C260.318 400.932 260.691 402.581 260.684 404.25C260.668 406.704 259.837 409.083 258.32 411.012L248.304 427.952C248.82 427.984 249.34 428 249.852 428V428Z" fill="#FED14B"/>
</g>
<path d="M130.421 420.8H97.5789L90 428V387.2C90 383.24 93.4105 380 97.5789 380H130.421C134.589 380 138 383.24 138 387.2V413.6C138 417.56 134.589 420.8 130.421 420.8Z" fill="#48CEC2"/>
<path d="M114 405C115.657 405 117 403.657 117 402C117 400.343 115.657 399 114 399C112.343 399 111 400.343 111 402C111 403.657 112.343 405 114 405Z" fill="white"/>
<path d="M124 405C125.657 405 127 403.657 127 402C127 400.343 125.657 399 124 399C122.343 399 121 400.343 121 402C121 403.657 122.343 405 124 405Z" fill="white"/>
<path d="M104 405C105.657 405 107 403.657 107 402C107 400.343 105.657 399 104 399C102.343 399 101 400.343 101 402C101 403.657 102.343 405 104 405Z" fill="white"/>
<path d="M206 420.8C206 424.776 202.776 428 198.8 428H165.2C161.224 428 158 424.776 158 420.8V387.2C158 383.224 161.224 380 165.2 380H198.8C202.776 380 206 383.224 206 387.2V420.8Z" fill="#3B97D3"/>
<path d="M201.2 387.2C201.2 387.837 200.947 388.447 200.497 388.897C200.047 389.347 199.436 389.6 198.8 389.6C198.163 389.6 197.552 389.347 197.102 388.897C196.652 388.447 196.399 387.836 196.4 387.199C196.4 386.563 196.653 385.952 197.103 385.502C197.553 385.052 198.163 384.799 198.8 384.799C199.437 384.8 200.047 385.053 200.497 385.503C200.947 385.953 201.2 386.563 201.2 387.2Z" fill="white" stroke="#2980BA" stroke-width="0.5" stroke-miterlimit="10"/>
<path opacity="0.5" d="M181.52 422.72C191.329 422.72 199.28 414.769 199.28 404.96C199.28 395.151 191.329 387.2 181.52 387.2C171.711 387.2 163.76 395.151 163.76 404.96C163.76 414.769 171.711 422.72 181.52 422.72Z" fill="#324559"/>
<path d="M182 421.76C191.809 421.76 199.76 413.809 199.76 404C199.76 394.191 191.809 386.24 182 386.24C172.191 386.24 164.24 394.191 164.24 404C164.24 413.809 172.191 421.76 182 421.76Z" fill="white"/>
<path d="M182 420.32C191.013 420.32 198.32 413.013 198.32 404C198.32 394.987 191.013 387.68 182 387.68C172.987 387.68 165.68 394.987 165.68 404C165.68 413.013 172.987 420.32 182 420.32Z" fill="#202D3C"/>
<path d="M182 414.56C187.832 414.56 192.56 409.832 192.56 404C192.56 398.168 187.832 393.44 182 393.44C176.168 393.44 171.44 398.168 171.44 404C171.44 409.832 176.168 414.56 182 414.56Z" fill="#35495E"/>
<path d="M182 410.24C185.446 410.24 188.24 407.446 188.24 404C188.24 400.554 185.446 397.76 182 397.76C178.554 397.76 175.76 400.554 175.76 404C175.76 407.446 178.554 410.24 182 410.24Z" fill="#202D3C"/>
<path d="M182 405.92C183.06 405.92 183.92 405.06 183.92 404C183.92 402.94 183.06 402.08 182 402.08C180.94 402.08 180.08 402.94 180.08 404C180.08 405.06 180.94 405.92 182 405.92Z" fill="#C03A2B"/>
<path d="M182 408.32C181.433 408.32 180.871 408.208 180.347 407.991C179.823 407.774 179.346 407.456 178.945 407.055C178.544 406.653 178.226 406.177 178.009 405.653C177.792 405.129 177.68 404.567 177.68 404" stroke="#35495E" stroke-width="0.5" stroke-miterlimit="10"/>
<path opacity="0.15" d="M169.34 391.459C176.299 384.5 187.582 384.5 194.541 391.459C201.5 398.418 201.5 409.701 194.541 416.66" fill="black"/>
<path d="M121 5H172L163.905 12H129.095L121 5Z" fill="#434343"/>
<path d="M21.5596 21H20.6514V14.9795L18.8301 15.6484V14.8281L21.418 13.8564H21.5596V21ZM24.2695 20.5264C24.2695 20.3701 24.3151 20.2399 24.4062 20.1357C24.5007 20.0316 24.6406 19.9795 24.8262 19.9795C25.0117 19.9795 25.1517 20.0316 25.2461 20.1357C25.3438 20.2399 25.3926 20.3701 25.3926 20.5264C25.3926 20.6761 25.3438 20.8014 25.2461 20.9023C25.1517 21.0033 25.0117 21.0537 24.8262 21.0537C24.6406 21.0537 24.5007 21.0033 24.4062 20.9023C24.3151 20.8014 24.2695 20.6761 24.2695 20.5264ZM24.2744 16.2148C24.2744 16.0586 24.32 15.9284 24.4111 15.8242C24.5055 15.7201 24.6455 15.668 24.8311 15.668C25.0166 15.668 25.1566 15.7201 25.251 15.8242C25.3486 15.9284 25.3975 16.0586 25.3975 16.2148C25.3975 16.3646 25.3486 16.4899 25.251 16.5908C25.1566 16.6917 25.0166 16.7422 24.8311 16.7422C24.6455 16.7422 24.5055 16.6917 24.4111 16.5908C24.32 16.4899 24.2744 16.3646 24.2744 16.2148ZM31.0859 17.9678C31.0859 19.0257 30.9053 19.8118 30.5439 20.3262C30.1826 20.8405 29.6178 21.0977 28.8496 21.0977C28.0911 21.0977 27.5296 20.847 27.165 20.3457C26.8005 19.8411 26.6117 19.0892 26.5986 18.0898V16.8838C26.5986 15.8389 26.7793 15.0625 27.1406 14.5547C27.502 14.0469 28.0684 13.793 28.8398 13.793C29.6048 13.793 30.168 14.0387 30.5293 14.5303C30.8906 15.0186 31.0762 15.7738 31.0859 16.7959V17.9678ZM30.1826 16.7324C30.1826 15.9674 30.0752 15.4108 29.8604 15.0625C29.6455 14.7109 29.3053 14.5352 28.8398 14.5352C28.3776 14.5352 28.0407 14.7093 27.8291 15.0576C27.6175 15.4059 27.5085 15.9414 27.502 16.6641V18.1094C27.502 18.8776 27.6126 19.4456 27.834 19.8135C28.0586 20.1781 28.3971 20.3604 28.8496 20.3604C29.2956 20.3604 29.626 20.1878 29.8408 19.8428C30.0589 19.4977 30.1729 18.9541 30.1826 18.2119V16.7324ZM35.7881 13.8857V14.6523H35.6221C34.9189 14.6654 34.359 14.8737 33.9424 15.2773C33.5257 15.681 33.2848 16.249 33.2197 16.9814C33.5941 16.5518 34.1051 16.3369 34.7529 16.3369C35.3714 16.3369 35.8646 16.555 36.2324 16.9912C36.6035 17.4274 36.7891 17.9906 36.7891 18.6807C36.7891 19.4131 36.5889 19.999 36.1885 20.4385C35.7913 20.8779 35.2575 21.0977 34.5869 21.0977C33.9066 21.0977 33.3548 20.8372 32.9316 20.3164C32.5085 19.7923 32.2969 19.1185 32.2969 18.2949V17.9482C32.2969 16.6396 32.5752 15.6403 33.1318 14.9502C33.6917 14.2568 34.5234 13.902 35.627 13.8857H35.7881ZM34.6016 17.0889C34.2923 17.0889 34.0075 17.1816 33.7471 17.3672C33.4867 17.5527 33.306 17.7855 33.2051 18.0654V18.3975C33.2051 18.9834 33.3369 19.4554 33.6006 19.8135C33.8643 20.1715 34.193 20.3506 34.5869 20.3506C34.9938 20.3506 35.3128 20.2008 35.5439 19.9014C35.7783 19.6019 35.8955 19.2096 35.8955 18.7246C35.8955 18.2363 35.7767 17.8424 35.5391 17.543C35.3047 17.2402 34.9922 17.0889 34.6016 17.0889ZM41.5107 18.2168V21H40.5732V13.8906H43.1953C43.9733 13.8906 44.582 14.0892 45.0215 14.4863C45.4642 14.8835 45.6855 15.4092 45.6855 16.0635C45.6855 16.7536 45.4691 17.2858 45.0361 17.6602C44.6064 18.0312 43.9896 18.2168 43.1855 18.2168H41.5107ZM41.5107 17.4502H43.1953C43.6966 17.4502 44.0807 17.333 44.3477 17.0986C44.6146 16.861 44.748 16.5192 44.748 16.0732C44.748 15.6501 44.6146 15.3115 44.3477 15.0576C44.0807 14.8037 43.7145 14.6719 43.249 14.6621H41.5107V17.4502ZM48.0928 13.8906L50.417 19.6914L52.7412 13.8906H53.957V21H53.0195V18.2314L53.1074 15.2432L50.7734 21H50.0557L47.7266 15.2578L47.8193 18.2314V21H46.8818V13.8906H48.0928Z" fill="#BDBDBD"/>
<path d="M244.053 18.875C243.864 19.0996 243.638 19.2803 243.374 19.417C243.114 19.5537 242.827 19.6221 242.515 19.6221C242.104 19.6221 241.746 19.5212 241.44 19.3193C241.138 19.1175 240.903 18.8343 240.737 18.4697C240.571 18.1019 240.488 17.6966 240.488 17.2539C240.488 16.7786 240.578 16.3506 240.757 15.9697C240.939 15.5889 241.196 15.2975 241.528 15.0957C241.86 14.8939 242.248 14.793 242.69 14.793C243.394 14.793 243.947 15.0566 244.351 15.584C244.757 16.1081 244.961 16.8242 244.961 17.7324V17.9961C244.961 19.3796 244.688 20.3903 244.141 21.0283C243.594 21.6631 242.769 21.9886 241.665 22.0049H241.489V21.2432H241.68C242.425 21.2301 242.998 21.0365 243.398 20.6621C243.799 20.2845 244.017 19.6888 244.053 18.875ZM242.661 18.875C242.964 18.875 243.242 18.7822 243.496 18.5967C243.753 18.4111 243.94 18.1816 244.058 17.9082V17.5469C244.058 16.9544 243.929 16.4727 243.672 16.1016C243.415 15.7305 243.089 15.5449 242.695 15.5449C242.298 15.5449 241.979 15.6979 241.738 16.0039C241.497 16.3066 241.377 16.707 241.377 17.2051C241.377 17.6901 241.493 18.0905 241.724 18.4062C241.958 18.7188 242.271 18.875 242.661 18.875ZM249.668 18.875C249.479 19.0996 249.253 19.2803 248.989 19.417C248.729 19.5537 248.442 19.6221 248.13 19.6221C247.72 19.6221 247.362 19.5212 247.056 19.3193C246.753 19.1175 246.519 18.8343 246.353 18.4697C246.187 18.1019 246.104 17.6966 246.104 17.2539C246.104 16.7786 246.193 16.3506 246.372 15.9697C246.554 15.5889 246.812 15.2975 247.144 15.0957C247.476 14.8939 247.863 14.793 248.306 14.793C249.009 14.793 249.562 15.0566 249.966 15.584C250.373 16.1081 250.576 16.8242 250.576 17.7324V17.9961C250.576 19.3796 250.303 20.3903 249.756 21.0283C249.209 21.6631 248.384 21.9886 247.28 22.0049H247.104V21.2432H247.295C248.04 21.2301 248.613 21.0365 249.014 20.6621C249.414 20.2845 249.632 19.6888 249.668 18.875ZM248.276 18.875C248.579 18.875 248.857 18.7822 249.111 18.5967C249.368 18.4111 249.556 18.1816 249.673 17.9082V17.5469C249.673 16.9544 249.544 16.4727 249.287 16.1016C249.03 15.7305 248.704 15.5449 248.311 15.5449C247.913 15.5449 247.594 15.6979 247.354 16.0039C247.113 16.3066 246.992 16.707 246.992 17.2051C246.992 17.6901 247.108 18.0905 247.339 18.4062C247.573 18.7188 247.886 18.875 248.276 18.875ZM251.743 16.2578C251.743 15.8314 251.878 15.4798 252.148 15.2031C252.422 14.9264 252.772 14.7881 253.198 14.7881C253.631 14.7881 253.981 14.9281 254.248 15.208C254.518 15.4847 254.653 15.8444 254.653 16.2871V16.6338C254.653 17.0635 254.517 17.415 254.243 17.6885C253.973 17.9587 253.628 18.0938 253.208 18.0938C252.785 18.0938 252.435 17.9587 252.158 17.6885C251.882 17.415 251.743 17.0521 251.743 16.5996V16.2578ZM252.417 16.6338C252.417 16.8877 252.489 17.0977 252.632 17.2637C252.775 17.4264 252.967 17.5078 253.208 17.5078C253.439 17.5078 253.625 17.4281 253.765 17.2686C253.908 17.109 253.979 16.891 253.979 16.6143V16.2578C253.979 16.0039 253.91 15.7939 253.77 15.6279C253.63 15.4619 253.439 15.3789 253.198 15.3789C252.957 15.3789 252.767 15.4619 252.627 15.6279C252.487 15.7939 252.417 16.0104 252.417 16.2773V16.6338ZM255.205 20.2568C255.205 19.8304 255.34 19.4805 255.61 19.207C255.884 18.9303 256.234 18.792 256.66 18.792C257.087 18.792 257.437 18.9287 257.71 19.2021C257.983 19.4756 258.12 19.8385 258.12 20.291V20.6377C258.12 21.0641 257.983 21.4157 257.71 21.6924C257.44 21.9658 257.093 22.1025 256.67 22.1025C256.247 22.1025 255.897 21.9674 255.62 21.6973C255.343 21.4238 255.205 21.0609 255.205 20.6084V20.2568ZM255.879 20.6377C255.879 20.8949 255.951 21.1064 256.094 21.2725C256.237 21.4352 256.429 21.5166 256.67 21.5166C256.904 21.5166 257.091 21.4368 257.231 21.2773C257.371 21.1146 257.441 20.8949 257.441 20.6182V20.2568C257.441 19.9997 257.37 19.7897 257.227 19.627C257.087 19.4642 256.898 19.3828 256.66 19.3828C256.429 19.3828 256.24 19.4642 256.094 19.627C255.951 19.7865 255.879 20.0029 255.879 20.2764V20.6377ZM253.413 21.4629L252.9 21.1406L256.372 15.584L256.885 15.9062L253.413 21.4629Z" fill="#BDBDBD"/>
<g clip-path="url(#clip1_913_568)">
<path d="M262.5 16.5H275V21.5H262.5V16.5Z" fill="#BDBDBD"/>
<path d="M262.5 14C261.837 14 261.201 14.2634 260.732 14.7322C260.263 15.2011 260 15.837 260 16.5V21.5C260 22.163 260.263 22.7989 260.732 23.2678C261.201 23.7366 261.837 24 262.5 24H275C275.663 24 276.299 23.7366 276.768 23.2678C277.237 22.7989 277.5 22.163 277.5 21.5V16.5C277.5 15.837 277.237 15.2011 276.768 14.7322C276.299 14.2634 275.663 14 275 14H262.5ZM275 15.25C275.332 15.25 275.649 15.3817 275.884 15.6161C276.118 15.8505 276.25 16.1685 276.25 16.5V21.5C276.25 21.8315 276.118 22.1495 275.884 22.3839C275.649 22.6183 275.332 22.75 275 22.75H262.5C262.168 22.75 261.851 22.6183 261.616 22.3839C261.382 22.1495 261.25 21.8315 261.25 21.5V16.5C261.25 16.1685 261.382 15.8505 261.616 15.6161C261.851 15.3817 262.168 15.25 262.5 15.25H275ZM280 19C280 19.4973 279.802 19.9742 279.451 20.3258C279.099 20.6775 278.622 20.875 278.125 20.875V17.125C278.622 17.125 279.099 17.3225 279.451 17.6742C279.802 18.0258 280 18.5027 280 19Z" fill="#BDBDBD"/>
</g>
<path d="M233.179 19.8774C232.465 19.2566 231.533 18.8809 230.513 18.8809C229.492 18.8809 228.56 19.2566 227.845 19.8787C227.826 19.8965 227.814 19.9213 227.812 19.9478C227.81 19.9743 227.818 20.0005 227.835 20.0209L228.292 20.5655C228.329 20.6087 228.394 20.6138 228.437 20.577C228.991 20.0895 229.717 19.7949 230.513 19.7949C231.309 19.7949 232.035 20.0895 232.588 20.5757C232.632 20.6125 232.696 20.6074 232.733 20.5643L233.19 20.0196C233.226 19.9777 233.221 19.9143 233.179 19.8774ZM234.669 18.0988C233.543 17.1606 232.095 16.5957 230.513 16.5957C228.931 16.5957 227.482 17.1606 226.355 18.0988C226.334 18.1162 226.321 18.1411 226.319 18.1679C226.317 18.1948 226.325 18.2215 226.342 18.2423L226.799 18.7869C226.835 18.8301 226.9 18.8352 226.942 18.7996C227.91 17.9947 229.156 17.5098 230.513 17.5098C231.87 17.5098 233.115 17.9947 234.083 18.7996C234.126 18.8352 234.189 18.8301 234.225 18.7869L234.682 18.2423C234.717 18.1991 234.712 18.1344 234.669 18.0988V18.0988ZM236.151 16.3342C234.609 15.0697 232.637 14.3105 230.487 14.3105C228.352 14.3105 226.392 15.0596 224.854 16.3088C224.844 16.3173 224.835 16.3278 224.829 16.3397C224.822 16.3516 224.818 16.3647 224.817 16.3782C224.816 16.3917 224.817 16.4053 224.821 16.4182C224.825 16.4312 224.832 16.4432 224.84 16.4535L225.297 16.9981C225.333 17.04 225.397 17.0464 225.438 17.0121C226.818 15.8937 228.574 15.2246 230.487 15.2246C232.414 15.2246 234.182 15.9038 235.565 17.0362C235.609 17.0718 235.672 17.0654 235.708 17.0223L236.165 16.4776C236.201 16.4345 236.195 16.3697 236.151 16.3342ZM229.688 21.877C229.688 22.0924 229.773 22.2991 229.926 22.4515C230.078 22.6039 230.285 22.6895 230.5 22.6895C230.716 22.6895 230.922 22.6039 231.075 22.4515C231.227 22.2991 231.313 22.0924 231.313 21.877C231.313 21.6615 231.227 21.4548 231.075 21.3024C230.922 21.1501 230.716 21.0645 230.5 21.0645C230.285 21.0645 230.078 21.1501 229.926 21.3024C229.773 21.4548 229.688 21.6615 229.688 21.877Z" fill="#BDBDBD"/>
<defs>
<clipPath id="clip0_913_568">
<rect width="48" height="48" fill="white" transform="translate(226 380)"/>
</clipPath>
<clipPath id="clip1_913_568">
<rect width="20" height="20" fill="white" transform="translate(260 9)"/>
</clipPath>
</defs>
</svg>
