<svg width="481" height="362" viewBox="0 0 481 362" fill="none" xmlns="http://www.w3.org/2000/svg">
<path fill-rule="evenodd" clip-rule="evenodd" d="M275.454 361L249.999 284.008L296.999 284L275.505 360.902" fill="#1C9AD6"/>
<path fill-rule="evenodd" clip-rule="evenodd" d="M476.962 78.4186L261.525 78.1688L212.529 78.1103L183.452 78.0751L251.091 284.316L298.246 284.308L369.667 284.289C386.011 284.351 398.799 274.519 405.045 259.409L479.925 82.7435C480.823 80.624 479.265 78.4303 476.962 78.4186Z" fill="#0A4875"/>
<path fill-rule="evenodd" clip-rule="evenodd" d="M0.261291 279.689C-0.65993 281.91 0.967821 284.357 3.37236 284.365L110.702 284.342L61.1634 133.278L0.261291 279.689Z" fill="#0A4875"/>
<path fill-rule="evenodd" clip-rule="evenodd" d="M251.096 284.332L251.092 284.316L183.453 78.0751L162.07 12.8853C159.622 5.21136 152.494 0.000396729 144.441 0.000396729H17.4573L61.1607 133.28L110.7 284.347L132.173 349.814C134.07 355.763 139.125 360.041 145.132 361.036C146.014 361.185 146.916 361.267 147.834 361.267H275.762H276.328L251.096 284.332Z" fill="#3AC1CC"/>
<path fill-rule="evenodd" clip-rule="evenodd" d="M236.046 0L211.999 77.9494L260.999 78L236.167 0" fill="#1C9AD6"/>
<path fill-rule="evenodd" clip-rule="evenodd" d="M380.996 12.5922C378.623 5.09564 371.677 0 363.829 0H360.166H236.999L271.166 107.78L343.284 122.808L420.999 139L380.996 12.5922Z" fill="#3AC1CC"/>
</svg>
