<svg width="373" height="235" viewBox="0 0 373 235" fill="currentColor" xmlns="http://www.w3.org/2000/svg">
<rect width="373" height="235" rx="16" fill="#8F70E7"/>
<rect x="37.7271" y="10.4155" width="239.176" height="20.831" rx="4" fill="#D7EFF0"/>
<rect x="339.23" y="9.57684" width="23.0247" height="20.627" rx="4" fill="#FE8181"/>
<rect x="5.69324" y="36.361" width="359.383" height="192.579" rx="10" fill="white"/>
<rect x="292.488" y="187.192" width="46.9637" height="23.0727" rx="11.5364" fill="#5D28CD"/>
<rect x="111.729" y="74.0688" width="146.6" height="96.9628" rx="31" fill="#8F70E7"/>
<path d="M163.591 114.269H161.505V107.238H155.071V114.269H152.986V98.9529H155.071V105.433H161.505V98.9529H163.591V114.269ZM176.693 107.765C176.693 108.055 176.689 108.297 176.681 108.492C176.673 108.687 176.661 108.871 176.646 109.043H168.384C168.384 110.246 168.72 111.172 169.392 111.82C170.064 112.461 171.032 112.781 172.298 112.781C172.642 112.781 172.986 112.769 173.329 112.746C173.673 112.715 174.005 112.676 174.325 112.629C174.646 112.582 174.95 112.531 175.239 112.476C175.536 112.414 175.81 112.347 176.06 112.277V113.953C175.505 114.109 174.876 114.234 174.173 114.328C173.478 114.43 172.755 114.48 172.005 114.48C170.997 114.48 170.13 114.344 169.404 114.07C168.677 113.797 168.079 113.402 167.611 112.887C167.15 112.363 166.806 111.726 166.579 110.976C166.361 110.219 166.251 109.363 166.251 108.41C166.251 107.582 166.368 106.801 166.603 106.066C166.845 105.324 167.193 104.676 167.646 104.121C168.107 103.558 168.669 103.113 169.333 102.785C169.997 102.457 170.751 102.293 171.595 102.293C172.415 102.293 173.142 102.422 173.775 102.68C174.407 102.937 174.939 103.305 175.368 103.781C175.806 104.25 176.134 104.824 176.353 105.504C176.579 106.176 176.693 106.93 176.693 107.765ZM174.571 107.472C174.595 106.949 174.544 106.472 174.419 106.043C174.294 105.605 174.099 105.23 173.833 104.918C173.575 104.605 173.251 104.363 172.861 104.191C172.47 104.012 172.017 103.922 171.501 103.922C171.056 103.922 170.65 104.008 170.282 104.18C169.915 104.351 169.599 104.594 169.333 104.906C169.068 105.219 168.853 105.594 168.689 106.031C168.525 106.469 168.423 106.949 168.384 107.472H174.571ZM183.958 99.3865H180.478V97.7108H186.021V112.57H189.525V114.269H180.091V112.57H183.958V99.3865ZM197.154 99.3865H193.673V97.7108H199.216V112.57H202.72V114.269H193.286V112.57H197.154V99.3865ZM216.583 108.293C216.583 109.207 216.454 110.047 216.196 110.812C215.939 111.57 215.568 112.222 215.083 112.769C214.599 113.308 214.009 113.73 213.314 114.035C212.618 114.332 211.829 114.48 210.946 114.48C210.103 114.48 209.345 114.351 208.673 114.094C208.009 113.828 207.443 113.441 206.974 112.933C206.513 112.426 206.157 111.797 205.907 111.047C205.665 110.297 205.544 109.433 205.544 108.457C205.544 107.543 205.673 106.711 205.931 105.961C206.189 105.203 206.56 104.555 207.044 104.015C207.529 103.469 208.118 103.047 208.814 102.75C209.509 102.445 210.298 102.293 211.181 102.293C212.025 102.293 212.779 102.426 213.443 102.691C214.114 102.949 214.681 103.332 215.142 103.84C215.611 104.34 215.966 104.965 216.208 105.715C216.458 106.465 216.583 107.324 216.583 108.293ZM214.497 108.387C214.497 107.66 214.415 107.027 214.251 106.488C214.095 105.941 213.868 105.488 213.571 105.129C213.275 104.762 212.911 104.488 212.482 104.308C212.06 104.121 211.587 104.027 211.064 104.027C210.454 104.027 209.931 104.148 209.493 104.39C209.064 104.625 208.708 104.941 208.427 105.34C208.154 105.738 207.95 106.203 207.818 106.734C207.693 107.258 207.63 107.808 207.63 108.387C207.63 109.113 207.708 109.75 207.864 110.297C208.029 110.844 208.259 111.301 208.556 111.668C208.853 112.027 209.212 112.301 209.634 112.488C210.056 112.668 210.532 112.758 211.064 112.758C211.673 112.758 212.193 112.64 212.622 112.406C213.06 112.164 213.415 111.844 213.689 111.445C213.97 111.047 214.173 110.586 214.298 110.062C214.431 109.531 214.497 108.972 214.497 108.387ZM164.353 126.953L163.321 142.269H160.614L158.716 136.82L158.189 135.074L157.638 136.961L155.88 142.269H153.267L152.212 126.953H154.181L154.779 137.371L154.954 140.23L155.693 137.805L157.544 132.121H158.986L161.118 138.215L161.833 140.23L161.88 138.121L162.489 126.953H164.353ZM176.997 136.293C176.997 137.207 176.868 138.047 176.611 138.812C176.353 139.57 175.982 140.222 175.497 140.769C175.013 141.308 174.423 141.73 173.728 142.035C173.032 142.332 172.243 142.48 171.361 142.48C170.517 142.48 169.759 142.351 169.087 142.094C168.423 141.828 167.857 141.441 167.388 140.933C166.927 140.426 166.571 139.797 166.321 139.047C166.079 138.297 165.958 137.433 165.958 136.457C165.958 135.543 166.087 134.711 166.345 133.961C166.603 133.203 166.974 132.555 167.458 132.015C167.943 131.469 168.532 131.047 169.228 130.75C169.923 130.445 170.712 130.293 171.595 130.293C172.439 130.293 173.193 130.426 173.857 130.691C174.529 130.949 175.095 131.332 175.556 131.84C176.025 132.34 176.38 132.965 176.622 133.715C176.872 134.465 176.997 135.324 176.997 136.293ZM174.911 136.387C174.911 135.66 174.829 135.027 174.665 134.488C174.509 133.941 174.282 133.488 173.986 133.129C173.689 132.762 173.325 132.488 172.896 132.308C172.474 132.121 172.001 132.027 171.478 132.027C170.868 132.027 170.345 132.148 169.907 132.39C169.478 132.625 169.122 132.941 168.841 133.34C168.568 133.738 168.364 134.203 168.232 134.734C168.107 135.258 168.044 135.808 168.044 136.387C168.044 137.113 168.122 137.75 168.279 138.297C168.443 138.844 168.673 139.301 168.97 139.668C169.267 140.027 169.626 140.301 170.048 140.488C170.47 140.668 170.946 140.758 171.478 140.758C172.087 140.758 172.607 140.64 173.036 140.406C173.474 140.164 173.829 139.844 174.103 139.445C174.384 139.047 174.587 138.586 174.712 138.062C174.845 137.531 174.911 136.972 174.911 136.387ZM180.431 130.504H182.294L182.353 132.672C183.048 131.836 183.732 131.23 184.404 130.855C185.083 130.48 185.767 130.293 186.454 130.293C187.673 130.293 188.595 130.687 189.22 131.476C189.853 132.265 190.146 133.437 190.099 134.992H188.036C188.06 133.961 187.907 133.215 187.579 132.754C187.259 132.285 186.786 132.051 186.161 132.051C185.888 132.051 185.611 132.101 185.329 132.203C185.056 132.297 184.771 132.453 184.474 132.672C184.185 132.883 183.876 133.156 183.548 133.492C183.22 133.828 182.868 134.234 182.493 134.711V142.269H180.431V130.504ZM197.154 127.387H193.673V125.711H199.216V140.57H202.72V142.269H193.286V140.57H197.154V127.387ZM205.743 136.633C205.743 135.633 205.88 134.746 206.154 133.972C206.427 133.191 206.814 132.535 207.314 132.004C207.821 131.465 208.427 131.058 209.13 130.785C209.841 130.504 210.63 130.363 211.497 130.363C211.872 130.363 212.239 130.387 212.599 130.433C212.966 130.48 213.325 130.555 213.677 130.656V125.711H215.728V142.269H213.9L213.829 140.043C213.259 140.871 212.642 141.484 211.978 141.883C211.314 142.281 210.595 142.48 209.821 142.48C209.15 142.48 208.556 142.34 208.04 142.058C207.532 141.777 207.107 141.383 206.763 140.875C206.427 140.359 206.173 139.742 206.001 139.023C205.829 138.305 205.743 137.508 205.743 136.633ZM207.829 136.504C207.829 137.926 208.036 138.988 208.45 139.691C208.872 140.387 209.466 140.734 210.232 140.734C210.747 140.734 211.29 140.504 211.861 140.043C212.439 139.582 213.044 138.898 213.677 137.992V132.531C213.341 132.375 212.97 132.258 212.564 132.18C212.157 132.094 211.755 132.051 211.357 132.051C210.247 132.051 209.38 132.41 208.755 133.129C208.138 133.847 207.829 134.972 207.829 136.504Z" fill="white"/>
</svg>
