<svg viewBox="0 0 535 378" fill="none" xmlns="http://www.w3.org/2000/svg">
<g id="Business Card" filter="url(#filter0_d)">
<rect id="Background" x="4" width="527" height="370" rx="25" fill="white"/>
<g id="Background graphic">
<g id="Card">
<path d="M4 25C4 11.1929 15.1929 0 29 0H319.059L269.18 370H29C15.1929 370 4 358.807 4 345V25Z" fill="url(#paint0_linear)"/>
<path d="M4 20.2407C4 9.06207 12.0328 0 21.9418 0H319.059L269.18 370H21.9418C12.0328 370 4 360.938 4 349.759V20.2407Z" fill="url(#paint1_linear)"/>
</g>
<path id="Card_2" d="M4 27.1386C4 12.524 16.482 1.02569 31.0474 2.22259L348.842 28.337L269.18 370H29C15.1929 370 4 358.807 4 345V27.1386Z" fill="url(#paint2_linear)"/>
<path id="Card_3" d="M4 29.8687C4 14.3 18.0766 2.51798 33.402 5.25933L372.884 65.9847L269.18 370H29C15.1929 370 4 358.807 4 345V29.8687Z" fill="url(#paint3_linear)"/>
<path id="Card_4" d="M4 50.8935C4 30.1297 27.8466 18.4158 44.2804 31.1069L338.436 258.271L269.539 370H29C15.1929 370 4 358.807 4 345V50.8935Z" fill="url(#paint4_linear)"/>
<g id="Card_5">
<path d="M4 25C4 11.1929 15.1929 0 29 0H269.597V370H29C15.1929 370 4 358.807 4 345V25Z" fill="url(#paint5_linear)"/>
<path d="M4 20.2407C4 9.06208 12.0454 0 21.97 0H269.597V370H21.97C12.0454 370 4 360.938 4 349.759V20.2407Z" fill="url(#paint6_linear)"/>
</g>
</g>
<g id="Card Title">
<path id="JM Biglang-awa" d="M44.7741 38.192V74.192C44.7741 74.96 44.6301 75.68 44.3421 76.352C44.0541 77.024 43.6701 77.616 43.1901 78.128C42.7101 78.672 42.1501 79.104 41.5101 79.424C40.8701 79.776 40.1821 79.984 39.4461 80.048C39.3821 80.08 39.2541 80.096 39.0621 80.096C38.9021 80.128 38.7101 80.144 38.4861 80.144C38.2941 80.176 38.1021 80.192 37.9101 80.192C37.7501 80.192 37.6221 80.192 37.5261 80.192V76.208C37.6541 76.208 37.9101 76.208 38.2941 76.208C38.6781 76.208 38.9341 76.176 39.0621 76.112C39.4461 76.016 39.7661 75.808 40.0221 75.488C40.3101 75.168 40.4541 74.784 40.4541 74.336V42.128H39.1101V38.192H44.7741ZM67.7676 38.24V74.48H63.4956V49.136C62.9516 50.544 62.3756 51.936 61.7676 53.312C61.1916 54.688 60.6156 56.096 60.0396 57.536H58.3596H56.3916C55.7836 56.096 55.1916 54.688 54.6156 53.312C54.0396 51.936 53.4476 50.544 52.8396 49.136V74.48H48.6156V38.24H52.5516C53.4796 40.48 54.4076 42.72 55.3356 44.96C56.2956 47.2 57.2556 49.44 58.2156 51.68C59.1436 49.44 60.0716 47.2 60.9996 44.96C61.9596 42.72 62.9196 40.48 63.8796 38.24H67.7676ZM96.5424 55.088C97.7584 56.24 98.3664 57.616 98.3664 59.216V68.624C98.3664 69.424 98.2064 70.192 97.8864 70.928C97.5984 71.632 97.1824 72.256 96.6384 72.8C96.1264 73.312 95.5024 73.728 94.7664 74.048C94.0624 74.336 93.3104 74.48 92.5104 74.48H81.6624V38.192H91.9344C92.7344 38.192 93.4864 38.352 94.1904 38.672C94.9264 38.992 95.5504 39.424 96.0624 39.968C96.6064 40.48 97.0224 41.104 97.3104 41.84C97.6304 42.544 97.7904 43.296 97.7904 44.096V51.584C97.7904 52.832 97.3744 54 96.5424 55.088ZM85.8864 53.504C86.8784 53.504 87.8544 53.504 88.8144 53.504C89.8064 53.472 90.7984 53.456 91.7904 53.456C92.2704 53.456 92.6864 53.28 93.0384 52.928C93.3904 52.576 93.5664 52.16 93.5664 51.68V43.952C93.5664 43.44 93.3904 43.008 93.0384 42.656C92.6864 42.304 92.2704 42.128 91.7904 42.128H85.8864V53.504ZM92.3184 70.592C92.8304 70.592 93.2624 70.416 93.6144 70.064C93.9664 69.712 94.1424 69.28 94.1424 68.768V59.168C94.1424 58.688 93.9664 58.272 93.6144 57.92C93.2624 57.536 92.8304 57.344 92.3184 57.344C91.2624 57.344 90.1904 57.36 89.1024 57.392C88.0464 57.392 86.9744 57.392 85.8864 57.392V70.592H92.3184ZM107.469 41.792V45.968H103.245V41.792H107.469ZM101.997 53.504V49.712H107.469V74.48H103.245V53.504H101.997ZM117.047 74.576C116.247 74.576 115.479 74.432 114.743 74.144C114.039 73.824 113.415 73.408 112.871 72.896C112.359 72.352 111.943 71.728 111.623 71.024C111.335 70.288 111.191 69.52 111.191 68.72V55.616C111.191 54.816 111.335 54.064 111.623 53.36C111.943 52.624 112.359 52 112.871 51.488C113.415 50.944 114.039 50.512 114.743 50.192C115.479 49.872 116.247 49.712 117.047 49.712H121.991C122.791 49.712 123.543 49.872 124.247 50.192C124.983 50.512 125.623 50.944 126.167 51.488C126.711 52 127.127 52.624 127.415 53.36C127.735 54.064 127.895 54.816 127.895 55.616V80.096C127.895 80.896 127.735 81.648 127.415 82.352C127.127 83.088 126.711 83.712 126.167 84.224C125.623 84.768 124.983 85.2 124.247 85.52C123.543 85.84 122.791 86 121.991 86H117.383C116.391 86 115.527 85.808 114.791 85.424C114.055 85.04 113.447 84.528 112.967 83.888C112.487 83.28 112.119 82.56 111.863 81.728C111.639 80.896 111.527 80.016 111.527 79.088H115.703C115.703 79.248 115.687 79.408 115.655 79.568C115.655 79.76 115.655 79.936 115.655 80.096C115.655 80.608 115.815 81.056 116.135 81.44C116.455 81.856 116.903 82.064 117.479 82.064H121.847C122.359 82.064 122.791 81.888 123.143 81.536C123.495 81.184 123.671 80.752 123.671 80.24V74.576H117.047ZM123.671 55.472C123.671 54.96 123.495 54.528 123.143 54.176C122.791 53.792 122.359 53.6 121.847 53.6H117.239C116.727 53.6 116.295 53.792 115.943 54.176C115.591 54.528 115.415 54.96 115.415 55.472V68.864C115.415 69.376 115.591 69.808 115.943 70.16C116.295 70.512 116.727 70.688 117.239 70.688H123.671V55.472ZM135.95 38.192V70.688H137.198V74.48H135.278C134.286 74.48 133.438 74.144 132.734 73.472C132.062 72.768 131.726 71.936 131.726 70.976V38.192H135.95ZM152.45 55.376C152.45 54.896 152.258 54.48 151.874 54.128C151.522 53.744 151.106 53.552 150.626 53.552H146.402C145.954 53.552 145.602 53.648 145.346 53.84C145.122 54 144.946 54.224 144.818 54.512C144.722 54.8 144.658 55.136 144.626 55.52C144.594 55.872 144.578 56.224 144.578 56.576H140.786C140.786 56.416 140.77 56.288 140.738 56.192C140.738 56.064 140.738 55.92 140.738 55.76C140.738 54.96 140.882 54.192 141.17 53.456C141.458 52.72 141.842 52.08 142.322 51.536C142.834 50.992 143.442 50.56 144.146 50.24C144.882 49.888 145.682 49.712 146.546 49.712H150.77C151.57 49.712 152.322 49.872 153.026 50.192C153.73 50.48 154.338 50.896 154.85 51.44C155.394 51.952 155.81 52.56 156.098 53.264C156.418 53.968 156.578 54.72 156.578 55.52V74.48H145.874C145.074 74.48 144.322 74.336 143.618 74.048C142.946 73.728 142.338 73.312 141.794 72.8C141.282 72.256 140.866 71.648 140.546 70.976C140.258 70.272 140.114 69.52 140.114 68.72V65.168C140.114 64.368 140.258 63.616 140.546 62.912C140.866 62.208 141.282 61.6 141.794 61.088C142.338 60.544 142.946 60.128 143.618 59.84C144.322 59.52 145.074 59.36 145.874 59.36H152.45V55.376ZM152.45 63.008H146.018C145.282 63.008 144.802 63.296 144.578 63.872C144.354 64.448 144.242 65.072 144.242 65.744V68.864C144.242 69.28 144.402 69.696 144.722 70.112C145.074 70.496 145.506 70.688 146.018 70.688H152.45V63.008ZM171.162 49.712C171.962 49.712 172.714 49.872 173.418 50.192C174.122 50.48 174.73 50.896 175.242 51.44C175.786 51.952 176.202 52.56 176.49 53.264C176.81 53.936 176.97 54.672 176.97 55.472V74.48H172.842V55.328C172.842 54.816 172.666 54.384 172.314 54.032C171.962 53.68 171.53 53.504 171.018 53.504H164.634V74.48H160.506V49.712H171.162ZM186.563 74.576C185.763 74.576 184.995 74.432 184.259 74.144C183.555 73.824 182.931 73.408 182.387 72.896C181.875 72.352 181.459 71.728 181.139 71.024C180.851 70.288 180.707 69.52 180.707 68.72V55.616C180.707 54.816 180.851 54.064 181.139 53.36C181.459 52.624 181.875 52 182.387 51.488C182.931 50.944 183.555 50.512 184.259 50.192C184.995 49.872 185.763 49.712 186.563 49.712H191.507C192.307 49.712 193.059 49.872 193.763 50.192C194.499 50.512 195.139 50.944 195.683 51.488C196.227 52 196.643 52.624 196.931 53.36C197.251 54.064 197.411 54.816 197.411 55.616V80.096C197.411 80.896 197.251 81.648 196.931 82.352C196.643 83.088 196.227 83.712 195.683 84.224C195.139 84.768 194.499 85.2 193.763 85.52C193.059 85.84 192.307 86 191.507 86H186.899C185.907 86 185.043 85.808 184.307 85.424C183.571 85.04 182.963 84.528 182.483 83.888C182.003 83.28 181.635 82.56 181.379 81.728C181.155 80.896 181.043 80.016 181.043 79.088H185.219C185.219 79.248 185.203 79.408 185.171 79.568C185.171 79.76 185.171 79.936 185.171 80.096C185.171 80.608 185.331 81.056 185.651 81.44C185.971 81.856 186.419 82.064 186.995 82.064H191.363C191.875 82.064 192.307 81.888 192.659 81.536C193.011 81.184 193.187 80.752 193.187 80.24V74.576H186.563ZM193.187 55.472C193.187 54.96 193.011 54.528 192.659 54.176C192.307 53.792 191.875 53.6 191.363 53.6H186.755C186.243 53.6 185.811 53.792 185.459 54.176C185.107 54.528 184.931 54.96 184.931 55.472V68.864C184.931 69.376 185.107 69.808 185.459 70.16C185.811 70.512 186.243 70.688 186.755 70.688H193.187V55.472ZM216.362 59.792H201.002V55.76H216.362V59.792ZM232.513 55.376C232.513 54.896 232.321 54.48 231.937 54.128C231.585 53.744 231.169 53.552 230.689 53.552H226.465C226.017 53.552 225.665 53.648 225.409 53.84C225.185 54 225.009 54.224 224.881 54.512C224.785 54.8 224.721 55.136 224.689 55.52C224.657 55.872 224.641 56.224 224.641 56.576H220.849C220.849 56.416 220.833 56.288 220.801 56.192C220.801 56.064 220.801 55.92 220.801 55.76C220.801 54.96 220.945 54.192 221.233 53.456C221.521 52.72 221.905 52.08 222.385 51.536C222.897 50.992 223.505 50.56 224.209 50.24C224.945 49.888 225.745 49.712 226.609 49.712H230.833C231.633 49.712 232.385 49.872 233.089 50.192C233.793 50.48 234.401 50.896 234.913 51.44C235.457 51.952 235.873 52.56 236.161 53.264C236.481 53.968 236.641 54.72 236.641 55.52V74.48H225.937C225.137 74.48 224.385 74.336 223.681 74.048C223.009 73.728 222.401 73.312 221.857 72.8C221.345 72.256 220.929 71.648 220.609 70.976C220.321 70.272 220.177 69.52 220.177 68.72V65.168C220.177 64.368 220.321 63.616 220.609 62.912C220.929 62.208 221.345 61.6 221.857 61.088C222.401 60.544 223.009 60.128 223.681 59.84C224.385 59.52 225.137 59.36 225.937 59.36H232.513V55.376ZM232.513 63.008H226.081C225.345 63.008 224.865 63.296 224.641 63.872C224.417 64.448 224.305 65.072 224.305 65.744V68.864C224.305 69.28 224.465 69.696 224.785 70.112C225.137 70.496 225.569 70.688 226.081 70.688H232.513V63.008ZM248.566 67.28C249.11 65.456 249.654 63.68 250.198 61.952C250.742 60.192 251.286 58.4 251.83 56.576C251.478 55.424 251.126 54.288 250.774 53.168C250.422 52.016 250.07 50.864 249.718 49.712H253.654C254.55 52.656 255.446 55.584 256.342 58.496C257.27 61.408 258.182 64.336 259.078 67.28C260.006 64.336 260.902 61.424 261.766 58.544C262.662 55.632 263.574 52.688 264.502 49.712H268.678C267.398 53.872 266.118 58 264.838 62.096C263.558 66.192 262.278 70.32 260.998 74.48H257.398C256.79 72.56 256.182 70.64 255.574 68.72C254.998 66.768 254.406 64.832 253.798 62.912C253.19 64.832 252.582 66.768 251.974 68.72C251.398 70.64 250.806 72.56 250.198 74.48H246.646C245.366 70.32 244.086 66.192 242.806 62.096C241.526 58 240.246 53.872 238.966 49.712H243.094C244.022 52.688 244.934 55.632 245.83 58.544C246.726 61.424 247.638 64.336 248.566 67.28ZM283.56 55.376C283.56 54.896 283.368 54.48 282.984 54.128C282.632 53.744 282.216 53.552 281.736 53.552H277.512C277.064 53.552 276.712 53.648 276.456 53.84C276.232 54 276.056 54.224 275.928 54.512C275.832 54.8 275.768 55.136 275.736 55.52C275.704 55.872 275.688 56.224 275.688 56.576H271.896C271.896 56.416 271.88 56.288 271.848 56.192C271.848 56.064 271.848 55.92 271.848 55.76C271.848 54.96 271.992 54.192 272.28 53.456C272.568 52.72 272.952 52.08 273.432 51.536C273.944 50.992 274.552 50.56 275.256 50.24C275.992 49.888 276.792 49.712 277.656 49.712H281.88C282.68 49.712 283.432 49.872 284.136 50.192C284.84 50.48 285.448 50.896 285.96 51.44C286.504 51.952 286.92 52.56 287.208 53.264C287.528 53.968 287.688 54.72 287.688 55.52V74.48H276.984C276.184 74.48 275.432 74.336 274.728 74.048C274.056 73.728 273.448 73.312 272.904 72.8C272.392 72.256 271.976 71.648 271.656 70.976C271.368 70.272 271.224 69.52 271.224 68.72V65.168C271.224 64.368 271.368 63.616 271.656 62.912C271.976 62.208 272.392 61.6 272.904 61.088C273.448 60.544 274.056 60.128 274.728 59.84C275.432 59.52 276.184 59.36 276.984 59.36H283.56V55.376ZM283.56 63.008H277.128C276.392 63.008 275.912 63.296 275.688 63.872C275.464 64.448 275.352 65.072 275.352 65.744V68.864C275.352 69.28 275.512 69.696 275.832 70.112C276.184 70.496 276.616 70.688 277.128 70.688H283.56V63.008Z" fill="white"/>
<path id="Full stack web developer" d="M39.8301 124.56H37.7181V106.416H44.9901V108.36H39.8301V115.08H44.3181V117.024H39.8301V124.56ZM48.8012 124.56C48.4012 124.56 48.0252 124.488 47.6732 124.344C47.3372 124.184 47.0332 123.976 46.7612 123.72C46.5052 123.448 46.2972 123.144 46.1372 122.808C45.9932 122.456 45.9212 122.08 45.9212 121.68V112.176H47.9852V121.752C47.9852 122.008 48.0732 122.224 48.2492 122.4C48.4252 122.56 48.6412 122.64 48.8972 122.64H52.0892V112.176H54.1532V124.56H48.8012ZM58.2056 106.416V122.664H58.8296V124.56H57.8696C57.3736 124.56 56.9496 124.392 56.5976 124.056C56.2616 123.704 56.0936 123.288 56.0936 122.808V106.416H58.2056ZM62.6822 106.416V122.664H63.3062V124.56H62.3462C61.8502 124.56 61.4262 124.392 61.0742 124.056C60.7382 123.704 60.5702 123.288 60.5702 122.808V106.416H62.6822ZM72.1989 124.56C71.8469 124.56 71.5269 124.496 71.2389 124.368C70.9509 124.224 70.7029 124.04 70.4949 123.816C70.2869 123.592 70.1269 123.328 70.0149 123.024C69.9029 122.72 69.8469 122.4 69.8469 122.064V121.176H71.8389V121.896C71.8389 122.072 71.8469 122.248 71.8629 122.424C71.8789 122.584 71.9909 122.664 72.1989 122.664H74.8629C75.0389 122.664 75.1429 122.592 75.1749 122.448C75.2069 122.304 75.2229 122.152 75.2229 121.992V120.936C75.2229 120.6 75.0549 120.344 74.7189 120.168C74.1589 119.848 73.5989 119.528 73.0389 119.208C72.4949 118.888 71.9429 118.568 71.3829 118.248C70.9349 117.992 70.5749 117.656 70.3029 117.24C70.0309 116.808 69.8949 116.32 69.8949 115.776V114.768C69.8949 114.416 69.9429 114.088 70.0389 113.784C70.1509 113.464 70.3029 113.184 70.4949 112.944C70.7029 112.704 70.9509 112.52 71.2389 112.392C71.5429 112.248 71.8789 112.176 72.2469 112.176H74.8629C75.2309 112.176 75.5589 112.248 75.8469 112.392C76.1349 112.536 76.3829 112.728 76.5909 112.968C76.7989 113.208 76.9509 113.48 77.0469 113.784C77.1589 114.088 77.2149 114.4 77.2149 114.72V115.608H75.2469V114.864C75.2469 114.704 75.2309 114.536 75.1989 114.36C75.1829 114.184 75.0709 114.096 74.8629 114.096H72.3429C72.1669 114.096 72.0549 114.168 72.0069 114.312C71.9749 114.44 71.9589 114.592 71.9589 114.768V115.848C71.9589 116.024 72.0869 116.224 72.3429 116.448C72.6149 116.656 72.9429 116.88 73.3269 117.12C73.7109 117.36 74.1269 117.608 74.5749 117.864C75.0229 118.104 75.4309 118.328 75.7989 118.536C76.2629 118.808 76.6229 119.152 76.8789 119.568C77.1509 119.984 77.2869 120.464 77.2869 121.008V121.992C77.2869 122.712 77.0789 123.32 76.6629 123.816C76.2469 124.312 75.6709 124.56 74.9349 124.56H72.1989ZM81.3347 108.168V112.176H83.5187V114.072H81.3347V121.752C81.3347 122.008 81.4227 122.224 81.5987 122.4C81.7747 122.576 81.9907 122.664 82.2467 122.664H84.1667V124.56L82.2227 124.584C81.8227 124.584 81.4387 124.512 81.0707 124.368C80.7187 124.208 80.4067 123.992 80.1347 123.72C79.8787 123.448 79.6707 123.136 79.5107 122.784C79.3667 122.432 79.2947 122.048 79.2947 121.632V114.096H78.0467V112.176H79.2947V108.168H81.3347ZM91.698 115.008C91.698 114.768 91.602 114.56 91.41 114.384C91.234 114.192 91.026 114.096 90.786 114.096H88.674C88.45 114.096 88.274 114.144 88.146 114.24C88.034 114.32 87.946 114.432 87.882 114.576C87.834 114.72 87.802 114.888 87.786 115.08C87.77 115.256 87.762 115.432 87.762 115.608H85.866C85.866 115.528 85.858 115.464 85.842 115.416C85.842 115.352 85.842 115.28 85.842 115.2C85.842 114.8 85.914 114.416 86.058 114.048C86.202 113.68 86.394 113.36 86.634 113.088C86.89 112.816 87.194 112.6 87.546 112.44C87.914 112.264 88.314 112.176 88.746 112.176H90.858C91.258 112.176 91.634 112.256 91.986 112.416C92.338 112.56 92.642 112.768 92.898 113.04C93.17 113.296 93.378 113.6 93.522 113.952C93.682 114.304 93.762 114.68 93.762 115.08V124.56H88.41C88.01 124.56 87.634 124.488 87.282 124.344C86.946 124.184 86.642 123.976 86.37 123.72C86.114 123.448 85.906 123.144 85.746 122.808C85.602 122.456 85.53 122.08 85.53 121.68V119.904C85.53 119.504 85.602 119.128 85.746 118.776C85.906 118.424 86.114 118.12 86.37 117.864C86.642 117.592 86.946 117.384 87.282 117.24C87.634 117.08 88.01 117 88.41 117H91.698V115.008ZM91.698 118.824H88.482C88.114 118.824 87.874 118.968 87.762 119.256C87.65 119.544 87.594 119.856 87.594 120.192V121.752C87.594 121.96 87.674 122.168 87.834 122.376C88.01 122.568 88.226 122.664 88.482 122.664H91.698V118.824ZM101.942 121.944C101.974 121.896 101.982 121.768 101.966 121.56C101.966 121.352 101.966 121.224 101.966 121.176H103.886C103.886 121.256 103.886 121.392 103.886 121.584C103.886 121.76 103.87 121.888 103.838 121.968C103.758 122.688 103.454 123.304 102.926 123.816C102.398 124.312 101.758 124.56 101.006 124.56H98.6299C98.2299 124.56 97.8539 124.488 97.5019 124.344C97.1659 124.184 96.8619 123.976 96.5899 123.72C96.3339 123.448 96.1259 123.144 95.9659 122.808C95.8219 122.456 95.7499 122.08 95.7499 121.68V115.056C95.7499 114.656 95.8219 114.288 95.9659 113.952C96.1259 113.6 96.3339 113.296 96.5899 113.04C96.8619 112.768 97.1659 112.56 97.5019 112.416C97.8539 112.256 98.2299 112.176 98.6299 112.176H101.006C101.374 112.176 101.718 112.248 102.038 112.392C102.374 112.52 102.662 112.696 102.902 112.92C103.158 113.144 103.366 113.416 103.526 113.736C103.686 114.04 103.782 114.368 103.814 114.72C103.846 114.8 103.862 114.944 103.862 115.152C103.878 115.344 103.886 115.48 103.886 115.56H101.966C101.966 115.496 101.966 115.368 101.966 115.176C101.982 114.968 101.974 114.832 101.942 114.768C101.91 114.576 101.806 114.416 101.63 114.288C101.47 114.144 101.286 114.072 101.078 114.072H98.7019C98.4619 114.072 98.2539 114.16 98.0779 114.336C97.9019 114.512 97.8139 114.728 97.8139 114.984V121.752C97.8139 121.992 97.9019 122.2 98.0779 122.376C98.2539 122.552 98.4619 122.64 98.7019 122.64H101.078C101.302 122.64 101.494 122.576 101.654 122.448C101.814 122.304 101.91 122.136 101.942 121.944ZM110.675 117.072C110.915 116.288 111.123 115.488 111.299 114.672C111.491 113.84 111.683 113.008 111.875 112.176H113.963C113.851 112.592 113.755 112.992 113.675 113.376C113.595 113.76 113.507 114.152 113.411 114.552C113.347 114.84 113.283 115.152 113.219 115.488C113.155 115.808 113.083 116.128 113.003 116.448C112.923 116.752 112.835 117.04 112.739 117.312C112.659 117.584 112.563 117.808 112.451 117.984C112.499 118.08 112.555 118.192 112.619 118.32C112.683 118.448 112.731 118.568 112.763 118.68C112.987 119.656 113.211 120.64 113.435 121.632C113.675 122.608 113.915 123.584 114.155 124.56H112.067C111.843 123.6 111.619 122.656 111.395 121.728C111.171 120.784 110.883 119.856 110.531 118.944H107.987V124.56H105.875V106.416H107.987V117.12H109.811C109.939 117.12 110.075 117.12 110.219 117.12C110.379 117.104 110.531 117.088 110.675 117.072ZM125.529 120.96C125.801 120.048 126.073 119.16 126.345 118.296C126.617 117.416 126.889 116.52 127.161 115.608C126.985 115.032 126.809 114.464 126.633 113.904C126.457 113.328 126.281 112.752 126.105 112.176H128.073C128.521 113.648 128.969 115.112 129.417 116.568C129.881 118.024 130.337 119.488 130.785 120.96C131.249 119.488 131.697 118.032 132.129 116.592C132.577 115.136 133.033 113.664 133.497 112.176H135.585C134.945 114.256 134.305 116.32 133.665 118.368C133.025 120.416 132.385 122.48 131.745 124.56H129.945C129.641 123.6 129.337 122.64 129.033 121.68C128.745 120.704 128.449 119.736 128.145 118.776C127.841 119.736 127.537 120.704 127.233 121.68C126.945 122.64 126.649 123.6 126.345 124.56H124.569C123.929 122.48 123.289 120.416 122.649 118.368C122.009 116.32 121.369 114.256 120.729 112.176H122.793C123.257 113.664 123.713 115.136 124.161 116.592C124.609 118.032 125.065 119.488 125.529 120.96ZM139.156 121.752C139.156 121.976 139.244 122.184 139.42 122.376C139.596 122.568 139.812 122.664 140.068 122.664H142.444C142.844 122.664 143.092 122.504 143.188 122.184C143.284 121.864 143.332 121.528 143.332 121.176H145.324V121.776C145.308 122.16 145.22 122.52 145.06 122.856C144.9 123.192 144.692 123.488 144.436 123.744C144.18 124 143.876 124.2 143.524 124.344C143.188 124.488 142.828 124.56 142.444 124.56H139.996C139.596 124.56 139.22 124.488 138.868 124.344C138.516 124.184 138.204 123.976 137.932 123.72C137.676 123.448 137.468 123.144 137.308 122.808C137.164 122.456 137.092 122.08 137.092 121.68V115.416C137.092 114.984 137.156 114.576 137.284 114.192C137.412 113.792 137.604 113.448 137.86 113.16C138.116 112.856 138.42 112.616 138.772 112.44C139.124 112.264 139.532 112.176 139.996 112.176H142.444C142.892 112.176 143.292 112.264 143.644 112.44C144.012 112.616 144.316 112.848 144.556 113.136C144.812 113.424 145.004 113.76 145.132 114.144C145.26 114.528 145.324 114.936 145.324 115.368V119.76H139.156V121.752ZM143.26 117.912V114.984C143.26 114.744 143.164 114.536 142.972 114.36C142.796 114.184 142.588 114.096 142.348 114.096H140.068C139.828 114.096 139.612 114.184 139.42 114.36C139.244 114.536 139.156 114.744 139.156 114.984V117.912H143.26ZM152.81 112.176C153.21 112.176 153.586 112.256 153.938 112.416C154.306 112.576 154.626 112.792 154.898 113.064C155.17 113.32 155.378 113.632 155.522 114C155.682 114.352 155.762 114.728 155.762 115.128V121.632C155.762 122.032 155.682 122.416 155.522 122.784C155.378 123.136 155.17 123.448 154.898 123.72C154.626 123.976 154.306 124.184 153.938 124.344C153.586 124.488 153.21 124.56 152.81 124.56H147.41V106.416H149.522V112.176H152.81ZM149.522 116.304V122.664H152.738C152.994 122.664 153.21 122.576 153.386 122.4C153.562 122.224 153.65 122.008 153.65 121.752V115.008C153.65 114.752 153.562 114.536 153.386 114.36C153.21 114.168 152.994 114.072 152.738 114.072H149.522V116.304ZM169.091 106.416H171.227V121.632C171.227 122.032 171.147 122.416 170.987 122.784C170.843 123.136 170.635 123.448 170.363 123.72C170.091 123.976 169.771 124.184 169.403 124.344C169.051 124.488 168.675 124.56 168.275 124.56H165.803C165.387 124.56 165.003 124.488 164.651 124.344C164.299 124.184 163.987 123.976 163.715 123.72C163.443 123.448 163.227 123.136 163.067 122.784C162.923 122.416 162.851 122.032 162.851 121.632V115.128C162.851 114.728 162.923 114.352 163.067 114C163.227 113.632 163.443 113.32 163.715 113.064C163.987 112.792 164.299 112.576 164.651 112.416C165.003 112.256 165.387 112.176 165.803 112.176H169.091V106.416ZM165.875 114.072C165.619 114.072 165.403 114.168 165.227 114.36C165.051 114.536 164.963 114.752 164.963 115.008V121.752C164.963 122.008 165.051 122.224 165.227 122.4C165.403 122.576 165.619 122.664 165.875 122.664H168.179C168.451 122.664 168.667 122.576 168.827 122.4C169.003 122.224 169.091 122.008 169.091 121.752V114.072H165.875ZM175.297 121.752C175.297 121.976 175.385 122.184 175.561 122.376C175.737 122.568 175.953 122.664 176.209 122.664H178.585C178.985 122.664 179.233 122.504 179.329 122.184C179.425 121.864 179.473 121.528 179.473 121.176H181.465V121.776C181.449 122.16 181.361 122.52 181.201 122.856C181.041 123.192 180.833 123.488 180.577 123.744C180.321 124 180.017 124.2 179.665 124.344C179.329 124.488 178.969 124.56 178.585 124.56H176.137C175.737 124.56 175.361 124.488 175.009 124.344C174.657 124.184 174.345 123.976 174.073 123.72C173.817 123.448 173.609 123.144 173.449 122.808C173.305 122.456 173.233 122.08 173.233 121.68V115.416C173.233 114.984 173.297 114.576 173.425 114.192C173.553 113.792 173.745 113.448 174.001 113.16C174.257 112.856 174.561 112.616 174.913 112.44C175.265 112.264 175.673 112.176 176.137 112.176H178.585C179.033 112.176 179.433 112.264 179.785 112.44C180.153 112.616 180.457 112.848 180.697 113.136C180.953 113.424 181.145 113.76 181.273 114.144C181.401 114.528 181.465 114.936 181.465 115.368V119.76H175.297V121.752ZM179.401 117.912V114.984C179.401 114.744 179.305 114.536 179.113 114.36C178.937 114.184 178.729 114.096 178.489 114.096H176.209C175.969 114.096 175.753 114.184 175.561 114.36C175.385 114.536 175.297 114.744 175.297 114.984V117.912H179.401ZM186.514 124.56L182.674 112.176H184.738L187.474 120.96L190.186 112.176H192.25L188.41 124.56H186.514ZM196.086 121.752C196.086 121.976 196.174 122.184 196.35 122.376C196.526 122.568 196.742 122.664 196.998 122.664H199.374C199.774 122.664 200.022 122.504 200.118 122.184C200.214 121.864 200.262 121.528 200.262 121.176H202.254V121.776C202.238 122.16 202.15 122.52 201.99 122.856C201.83 123.192 201.622 123.488 201.366 123.744C201.11 124 200.806 124.2 200.454 124.344C200.118 124.488 199.758 124.56 199.374 124.56H196.926C196.526 124.56 196.15 124.488 195.798 124.344C195.446 124.184 195.134 123.976 194.862 123.72C194.606 123.448 194.398 123.144 194.238 122.808C194.094 122.456 194.022 122.08 194.022 121.68V115.416C194.022 114.984 194.086 114.576 194.214 114.192C194.342 113.792 194.534 113.448 194.79 113.16C195.046 112.856 195.35 112.616 195.702 112.44C196.054 112.264 196.462 112.176 196.926 112.176H199.374C199.822 112.176 200.222 112.264 200.574 112.44C200.942 112.616 201.246 112.848 201.486 113.136C201.742 113.424 201.934 113.76 202.062 114.144C202.19 114.528 202.254 114.936 202.254 115.368V119.76H196.086V121.752ZM200.19 117.912V114.984C200.19 114.744 200.094 114.536 199.902 114.36C199.726 114.184 199.518 114.096 199.278 114.096H196.998C196.758 114.096 196.542 114.184 196.35 114.36C196.174 114.536 196.086 114.744 196.086 114.984V117.912H200.19ZM206.284 106.416V122.664H206.908V124.56H205.948C205.452 124.56 205.028 124.392 204.676 124.056C204.34 123.704 204.172 123.288 204.172 122.808V106.416H206.284ZM213.694 112.176C214.094 112.176 214.47 112.256 214.822 112.416C215.174 112.56 215.478 112.768 215.734 113.04C216.006 113.296 216.214 113.6 216.358 113.952C216.518 114.304 216.598 114.68 216.598 115.08V121.68C216.598 122.08 216.518 122.456 216.358 122.808C216.214 123.144 216.006 123.448 215.734 123.72C215.478 123.976 215.174 124.184 214.822 124.344C214.47 124.488 214.094 124.56 213.694 124.56H211.246C210.846 124.56 210.47 124.488 210.118 124.344C209.782 124.184 209.478 123.976 209.206 123.72C208.95 123.448 208.742 123.144 208.582 122.808C208.438 122.456 208.366 122.08 208.366 121.68V115.08C208.366 114.68 208.438 114.304 208.582 113.952C208.742 113.6 208.95 113.296 209.206 113.04C209.478 112.768 209.782 112.56 210.118 112.416C210.47 112.256 210.846 112.176 211.246 112.176H213.694ZM214.534 114.984C214.534 114.744 214.446 114.536 214.27 114.36C214.094 114.184 213.878 114.096 213.622 114.096H211.342C210.942 114.096 210.686 114.248 210.574 114.552C210.478 114.84 210.43 115.144 210.43 115.464V121.752C210.43 122.008 210.518 122.224 210.694 122.4C210.87 122.576 211.086 122.664 211.342 122.664H213.622C214.006 122.664 214.254 122.52 214.366 122.232C214.478 121.944 214.534 121.624 214.534 121.272V114.984ZM220.603 130.32H218.491V112.176H223.915C224.315 112.176 224.691 112.256 225.043 112.416C225.411 112.576 225.723 112.792 225.979 113.064C226.251 113.32 226.459 113.632 226.603 114C226.763 114.352 226.843 114.728 226.843 115.128V121.032C226.843 121.512 226.779 121.968 226.651 122.4C226.523 122.816 226.339 123.184 226.099 123.504C225.859 123.824 225.555 124.08 225.187 124.272C224.819 124.464 224.395 124.56 223.915 124.56H220.603V130.32ZM220.603 122.664H223.843C224.099 122.664 224.315 122.576 224.491 122.4C224.667 122.224 224.755 122.008 224.755 121.752V115.008C224.755 114.752 224.667 114.536 224.491 114.36C224.315 114.168 224.099 114.072 223.843 114.072H220.603V122.664ZM230.821 121.752C230.821 121.976 230.909 122.184 231.085 122.376C231.261 122.568 231.477 122.664 231.733 122.664H234.109C234.509 122.664 234.757 122.504 234.853 122.184C234.949 121.864 234.997 121.528 234.997 121.176H236.989V121.776C236.973 122.16 236.885 122.52 236.725 122.856C236.565 123.192 236.357 123.488 236.101 123.744C235.845 124 235.541 124.2 235.189 124.344C234.853 124.488 234.493 124.56 234.109 124.56H231.661C231.261 124.56 230.885 124.488 230.533 124.344C230.181 124.184 229.869 123.976 229.597 123.72C229.341 123.448 229.133 123.144 228.973 122.808C228.829 122.456 228.757 122.08 228.757 121.68V115.416C228.757 114.984 228.821 114.576 228.949 114.192C229.077 113.792 229.269 113.448 229.525 113.16C229.781 112.856 230.085 112.616 230.437 112.44C230.789 112.264 231.197 112.176 231.661 112.176H234.109C234.557 112.176 234.957 112.264 235.309 112.44C235.677 112.616 235.981 112.848 236.221 113.136C236.477 113.424 236.669 113.76 236.797 114.144C236.925 114.528 236.989 114.936 236.989 115.368V119.76H230.821V121.752ZM234.925 117.912V114.984C234.925 114.744 234.829 114.536 234.637 114.36C234.461 114.184 234.253 114.096 234.013 114.096H231.733C231.493 114.096 231.277 114.184 231.085 114.36C230.909 114.536 230.821 114.744 230.821 114.984V117.912H234.925ZM242.866 112.176C243.234 112.176 243.586 112.248 243.922 112.392C244.258 112.52 244.554 112.704 244.81 112.944C245.066 113.168 245.274 113.44 245.434 113.76C245.594 114.08 245.69 114.416 245.722 114.768C245.754 114.848 245.77 114.984 245.77 115.176C245.77 115.352 245.77 115.48 245.77 115.56H243.85C243.85 115.512 243.85 115.4 243.85 115.224C243.85 115.048 243.842 114.936 243.826 114.888C243.794 114.68 243.698 114.512 243.538 114.384C243.378 114.24 243.186 114.168 242.962 114.168H240.97V124.584H238.906V112.176H242.866Z" fill="white"/>
</g>
<g id="Contact details">
<g id="Github">
<g id="akar-icons:github-fill" clip-path="url(#clip0)">
<g id="Group">
<path id="Vector" fill-rule="evenodd" clip-rule="evenodd" d="M98.7135 230.88C86.5165 230.88 76.6375 241.146 76.6375 253.82C76.6375 263.971 82.9567 272.545 91.732 275.584C92.8358 275.785 93.2497 275.097 93.2497 274.495C93.2497 273.95 93.2221 272.143 93.2221 270.222C87.6755 271.283 86.2405 268.817 85.799 267.527C85.5507 266.867 84.4745 264.831 83.5362 264.286C82.7636 263.856 81.6598 262.795 83.5086 262.767C85.2471 262.738 86.4889 264.43 86.9028 265.118C88.8897 268.588 92.0631 267.613 93.3325 267.011C93.5257 265.519 94.1051 264.516 94.7398 263.942C89.8279 263.369 84.6952 261.39 84.6952 252.616C84.6952 250.121 85.5507 248.056 86.958 246.451C86.7373 245.877 85.9646 243.526 87.1788 240.371C87.1788 240.371 89.0276 239.769 93.2497 242.723C95.0158 242.207 96.8923 241.949 98.7687 241.949C100.645 241.949 102.522 242.207 104.288 242.723C108.51 239.741 110.359 240.371 110.359 240.371C111.573 243.526 110.8 245.877 110.579 246.451C111.987 248.056 112.842 250.092 112.842 252.616C112.842 261.419 107.682 263.369 102.77 263.942C103.57 264.659 104.26 266.036 104.26 268.186C104.26 271.254 104.233 273.72 104.233 274.495C104.233 275.097 104.646 275.814 105.75 275.584C110.133 274.047 113.941 271.12 116.639 267.216C119.337 263.312 120.788 258.626 120.79 253.82C120.79 241.146 110.911 230.88 98.7135 230.88Z" fill="#045873"/>
</g>
</g>
<g id="Rectangle 1">
<rect x="133.608" y="235" width="329.005" height="37" rx="18.5" fill="#AFE9E5" style="mix-blend-mode:multiply"/>
</g>
<path id="/jmbiglangawa" d="M166.39 247.396L160.343 262.092H158.999L165.028 247.396H166.39ZM169.159 259.622C169.159 261.099 168.86 262.235 168.262 263.032C167.67 263.835 166.821 264.236 165.713 264.236C165.303 264.236 164.905 264.143 164.518 263.955V262.61C164.952 262.874 165.362 263.006 165.749 263.006C167.061 263.006 167.717 261.957 167.717 259.859V251H169.159V259.622ZM168.456 248.715C168.198 248.715 167.978 248.627 167.796 248.451C167.615 248.275 167.524 248.053 167.524 247.783C167.524 247.514 167.615 247.291 167.796 247.115C167.978 246.934 168.198 246.843 168.456 246.843C168.719 246.843 168.942 246.934 169.124 247.115C169.311 247.291 169.405 247.514 169.405 247.783C169.405 248.041 169.311 248.261 169.124 248.442C168.942 248.624 168.719 248.715 168.456 248.715ZM184.856 260H183.415V254.832C183.415 253.836 183.259 253.115 182.949 252.67C182.644 252.225 182.128 252.002 181.402 252.002C180.787 252.002 180.262 252.283 179.829 252.846C179.401 253.408 179.187 254.082 179.187 254.867V260H177.746V254.656C177.746 252.887 177.063 252.002 175.698 252.002C175.065 252.002 174.543 252.269 174.133 252.802C173.723 253.329 173.518 254.018 173.518 254.867V260H172.077V251H173.518V252.424H173.553C174.192 251.334 175.124 250.789 176.348 250.789C176.963 250.789 177.5 250.962 177.957 251.308C178.414 251.647 178.727 252.096 178.897 252.652C179.565 251.41 180.561 250.789 181.885 250.789C183.866 250.789 184.856 252.011 184.856 254.454V260ZM189.057 258.699H189.022V260H187.581V246.676H189.022V252.582H189.057C189.766 251.387 190.803 250.789 192.168 250.789C193.323 250.789 194.225 251.193 194.875 252.002C195.532 252.805 195.86 253.883 195.86 255.236C195.86 256.742 195.494 257.949 194.761 258.857C194.029 259.76 193.027 260.211 191.755 260.211C190.566 260.211 189.667 259.707 189.057 258.699ZM189.022 255.069V256.326C189.022 257.07 189.262 257.703 189.743 258.225C190.229 258.74 190.844 258.998 191.588 258.998C192.461 258.998 193.144 258.664 193.636 257.996C194.134 257.328 194.383 256.399 194.383 255.21C194.383 254.208 194.152 253.423 193.689 252.854C193.226 252.286 192.599 252.002 191.808 252.002C190.97 252.002 190.296 252.295 189.787 252.881C189.277 253.461 189.022 254.19 189.022 255.069ZM198.901 248.715C198.643 248.715 198.423 248.627 198.242 248.451C198.06 248.275 197.969 248.053 197.969 247.783C197.969 247.514 198.06 247.291 198.242 247.115C198.423 246.934 198.643 246.843 198.901 246.843C199.165 246.843 199.387 246.934 199.569 247.115C199.756 247.291 199.85 247.514 199.85 247.783C199.85 248.041 199.756 248.261 199.569 248.442C199.387 248.624 199.165 248.715 198.901 248.715ZM199.604 260H198.163V251H199.604V260ZM210.204 259.279C210.204 262.584 208.622 264.236 205.458 264.236C204.344 264.236 203.372 264.025 202.54 263.604V262.162C203.553 262.725 204.52 263.006 205.44 263.006C207.655 263.006 208.762 261.828 208.762 259.473V258.488H208.727C208.042 259.637 207.01 260.211 205.633 260.211C204.514 260.211 203.612 259.812 202.926 259.016C202.247 258.213 201.907 257.138 201.907 255.79C201.907 254.261 202.273 253.045 203.005 252.143C203.744 251.24 204.751 250.789 206.029 250.789C207.242 250.789 208.141 251.275 208.727 252.248H208.762V251H210.204V259.279ZM208.762 255.931V254.604C208.762 253.889 208.519 253.276 208.033 252.767C207.552 252.257 206.952 252.002 206.231 252.002C205.34 252.002 204.643 252.327 204.139 252.978C203.635 253.622 203.383 254.527 203.383 255.693C203.383 256.695 203.624 257.498 204.104 258.102C204.59 258.699 205.232 258.998 206.029 258.998C206.837 258.998 207.494 258.711 207.998 258.137C208.507 257.562 208.762 256.827 208.762 255.931ZM214.563 260H213.122V246.676H214.563V260ZM223.923 260H222.482V258.594H222.447C221.82 259.672 220.897 260.211 219.678 260.211C218.782 260.211 218.079 259.974 217.569 259.499C217.065 259.024 216.813 258.395 216.813 257.609C216.813 255.928 217.803 254.949 219.784 254.674L222.482 254.296C222.482 252.767 221.864 252.002 220.627 252.002C219.543 252.002 218.565 252.371 217.692 253.109V251.633C218.577 251.07 219.596 250.789 220.75 250.789C222.866 250.789 223.923 251.908 223.923 254.146V260ZM222.482 255.447L220.311 255.746C219.643 255.84 219.139 256.007 218.799 256.247C218.459 256.481 218.29 256.9 218.29 257.504C218.29 257.943 218.445 258.304 218.755 258.585C219.072 258.86 219.491 258.998 220.012 258.998C220.727 258.998 221.316 258.749 221.779 258.251C222.248 257.747 222.482 257.111 222.482 256.344V255.447ZM234.11 260H232.668V254.867C232.668 252.957 231.971 252.002 230.577 252.002C229.856 252.002 229.258 252.274 228.784 252.819C228.315 253.358 228.081 254.041 228.081 254.867V260H226.639V251H228.081V252.494H228.116C228.795 251.357 229.78 250.789 231.069 250.789C232.053 250.789 232.806 251.108 233.328 251.747C233.849 252.38 234.11 253.297 234.11 254.498V260ZM244.516 259.279C244.516 262.584 242.934 264.236 239.77 264.236C238.657 264.236 237.684 264.025 236.852 263.604V262.162C237.866 262.725 238.833 263.006 239.752 263.006C241.967 263.006 243.075 261.828 243.075 259.473V258.488H243.04C242.354 259.637 241.323 260.211 239.946 260.211C238.827 260.211 237.924 259.812 237.239 259.016C236.559 258.213 236.219 257.138 236.219 255.79C236.219 254.261 236.585 253.045 237.318 252.143C238.056 251.24 239.064 250.789 240.341 250.789C241.554 250.789 242.454 251.275 243.04 252.248H243.075V251H244.516V259.279ZM243.075 255.931V254.604C243.075 253.889 242.832 253.276 242.345 252.767C241.865 252.257 241.264 252.002 240.543 252.002C239.653 252.002 238.956 252.327 238.452 252.978C237.948 253.622 237.696 254.527 237.696 255.693C237.696 256.695 237.936 257.498 238.417 258.102C238.903 258.699 239.544 258.998 240.341 258.998C241.15 258.998 241.806 258.711 242.31 258.137C242.82 257.562 243.075 256.827 243.075 255.931ZM253.876 260H252.435V258.594H252.4C251.773 259.672 250.85 260.211 249.631 260.211C248.735 260.211 248.032 259.974 247.522 259.499C247.018 259.024 246.766 258.395 246.766 257.609C246.766 255.928 247.756 254.949 249.737 254.674L252.435 254.296C252.435 252.767 251.817 252.002 250.581 252.002C249.497 252.002 248.518 252.371 247.645 253.109V251.633C248.53 251.07 249.549 250.789 250.704 250.789C252.819 250.789 253.876 251.908 253.876 254.146V260ZM252.435 255.447L250.264 255.746C249.596 255.84 249.092 256.007 248.752 256.247C248.413 256.481 248.243 256.9 248.243 257.504C248.243 257.943 248.398 258.304 248.708 258.585C249.025 258.86 249.444 258.998 249.965 258.998C250.68 258.998 251.269 258.749 251.732 258.251C252.201 257.747 252.435 257.111 252.435 256.344V255.447ZM267.93 251L265.232 260H263.738L261.883 253.558C261.813 253.312 261.766 253.033 261.743 252.723H261.708C261.69 252.934 261.628 253.206 261.523 253.54L259.51 260H258.069L255.344 251H256.856L258.719 257.768C258.778 257.973 258.819 258.242 258.842 258.576H258.913C258.93 258.318 258.983 258.043 259.071 257.75L261.145 251H262.463L264.327 257.785C264.385 258.002 264.429 258.271 264.458 258.594H264.529C264.541 258.365 264.59 258.096 264.678 257.785L266.506 251H267.93ZM276.042 260H274.601V258.594H274.566C273.939 259.672 273.016 260.211 271.797 260.211C270.901 260.211 270.198 259.974 269.688 259.499C269.184 259.024 268.932 258.395 268.932 257.609C268.932 255.928 269.922 254.949 271.903 254.674L274.601 254.296C274.601 252.767 273.983 252.002 272.747 252.002C271.663 252.002 270.684 252.371 269.811 253.109V251.633C270.696 251.07 271.715 250.789 272.87 250.789C274.985 250.789 276.042 251.908 276.042 254.146V260ZM274.601 255.447L272.43 255.746C271.762 255.84 271.258 256.007 270.918 256.247C270.579 256.481 270.409 256.9 270.409 257.504C270.409 257.943 270.564 258.304 270.875 258.585C271.191 258.86 271.61 258.998 272.131 258.998C272.846 258.998 273.435 258.749 273.898 258.251C274.367 257.747 274.601 257.111 274.601 256.344V255.447Z" fill="#034B78"/>
</g>
<g id="Website">
<g id="bi:globe" clip-path="url(#clip1)">
<g id="Group_2">
<path id="Vector_2" d="M76.6375 184.26C76.6375 178.176 78.9633 172.341 83.1034 168.039C87.2435 163.737 92.8586 161.32 98.7135 161.32C104.568 161.32 110.184 163.737 114.324 168.039C118.464 172.341 120.79 178.176 120.79 184.26C120.79 190.344 118.464 196.179 114.324 200.481C110.184 204.783 104.568 207.2 98.7135 207.2C92.8586 207.2 87.2435 204.783 83.1034 200.481C78.9633 196.179 76.6375 190.344 76.6375 184.26V184.26ZM97.3338 164.408C95.4849 164.993 93.6498 166.76 92.1266 169.728C91.6247 170.714 91.1931 171.738 90.8351 172.79H97.3338V164.408ZM87.9238 172.79C88.3838 171.267 88.9749 169.79 89.6899 168.377C90.1671 167.439 90.7181 166.545 91.3374 165.702C87.9183 167.175 84.9767 169.635 82.8601 172.79H87.9238ZM86.3178 182.826C86.4006 180.312 86.6986 177.9 87.1788 175.658H81.2569C80.2279 177.909 79.6139 180.34 79.4466 182.826H86.3178ZM90.0128 175.658C89.47 178.008 89.1575 180.41 89.0801 182.826H97.3338V175.658H90.0128ZM100.093 175.658V182.826H108.344C108.268 180.41 107.956 178.008 107.414 175.658H100.093ZM89.0828 185.694C89.1594 188.11 89.471 190.512 90.0128 192.863H97.3338V185.694H89.0828ZM100.093 185.694V192.863H107.414C107.93 190.669 108.259 188.252 108.347 185.694H100.093ZM90.8351 195.73C91.2159 196.837 91.6492 197.863 92.1266 198.793C93.6498 201.76 95.4877 203.524 97.3338 204.112V195.73H90.8351ZM91.3374 202.819C90.7181 201.976 90.167 201.081 89.6899 200.143C88.9749 198.73 88.3838 197.253 87.9238 195.73H82.8601C84.9766 198.886 87.9183 201.345 91.3374 202.819V202.819ZM87.1788 192.863C86.6798 190.506 86.3915 188.106 86.3178 185.694H79.4466C79.6177 188.246 80.2496 190.663 81.2569 192.863H87.1788ZM106.09 202.819C109.509 201.345 112.45 198.886 114.567 195.73H109.503C109.043 197.253 108.452 198.73 107.737 200.143C107.26 201.081 106.709 201.976 106.09 202.819V202.819ZM100.093 195.73V204.112C101.942 203.527 103.777 201.76 105.3 198.793C105.778 197.863 106.211 196.837 106.592 195.73H100.093ZM110.248 192.863H116.17C117.177 190.663 117.809 188.246 117.98 185.694H111.109C111.036 188.106 110.747 190.506 110.248 192.863ZM117.98 182.826C117.813 180.34 117.199 177.909 116.17 175.658H110.248C110.728 177.9 111.026 180.312 111.109 182.826H117.98ZM107.737 168.377C108.419 169.708 109.012 171.187 109.503 172.79H114.567C112.45 169.635 109.509 167.175 106.09 165.702C106.691 166.516 107.243 167.416 107.737 168.377V168.377ZM106.592 172.79C106.234 171.738 105.802 170.714 105.3 169.728C103.777 166.76 101.942 164.996 100.093 164.408V172.79H106.592Z" fill="#045873"/>
</g>
</g>
<g id="Rectangle 2">
<rect x="133.608" y="166" width="329.005" height="37" rx="18.5" fill="#AFE9E5" style="mix-blend-mode:multiply"/>
</g>
<path id="theBiglangAwaClub.web.app" d="M164.878 190.912C164.539 191.1 164.09 191.193 163.534 191.193C161.958 191.193 161.169 190.314 161.169 188.557V183.23H159.623V182H161.169V179.803L162.611 179.337V182H164.878V183.23H162.611V188.302C162.611 188.905 162.713 189.336 162.918 189.594C163.124 189.852 163.463 189.98 163.938 189.98C164.301 189.98 164.615 189.881 164.878 189.682V190.912ZM174.274 191H172.833V185.814C172.833 183.939 172.135 183.002 170.741 183.002C170.038 183.002 169.446 183.274 168.965 183.819C168.485 184.358 168.245 185.053 168.245 185.902V191H166.803V177.676H168.245V183.494H168.28C168.971 182.357 169.956 181.789 171.233 181.789C173.26 181.789 174.274 183.011 174.274 185.454V191ZM184.232 186.86H177.877C177.901 187.862 178.17 188.636 178.686 189.181C179.202 189.726 179.911 189.998 180.813 189.998C181.827 189.998 182.758 189.664 183.608 188.996V190.35C182.817 190.924 181.771 191.211 180.47 191.211C179.199 191.211 178.2 190.804 177.473 189.989C176.747 189.169 176.383 188.018 176.383 186.535C176.383 185.135 176.779 183.995 177.57 183.116C178.367 182.231 179.354 181.789 180.532 181.789C181.709 181.789 182.621 182.17 183.265 182.932C183.91 183.693 184.232 184.751 184.232 186.104V186.86ZM182.755 185.639C182.75 184.807 182.547 184.159 182.149 183.696C181.756 183.233 181.208 183.002 180.505 183.002C179.826 183.002 179.249 183.245 178.774 183.731C178.299 184.218 178.006 184.854 177.895 185.639H182.755ZM186.614 191V178.396H190.2C191.29 178.396 192.154 178.663 192.792 179.196C193.431 179.729 193.75 180.424 193.75 181.279C193.75 181.994 193.557 182.615 193.17 183.143C192.784 183.67 192.25 184.045 191.571 184.268V184.303C192.42 184.402 193.1 184.725 193.61 185.27C194.12 185.809 194.375 186.512 194.375 187.379C194.375 188.457 193.988 189.33 193.214 189.998C192.441 190.666 191.465 191 190.288 191H186.614ZM188.09 179.732V183.802H189.602C190.411 183.802 191.046 183.608 191.509 183.222C191.972 182.829 192.204 182.278 192.204 181.569C192.204 180.345 191.398 179.732 189.787 179.732H188.09ZM188.09 185.129V189.664H190.094C190.961 189.664 191.632 189.459 192.107 189.049C192.587 188.639 192.828 188.076 192.828 187.361C192.828 185.873 191.814 185.129 189.787 185.129H188.09ZM197.477 179.715C197.219 179.715 197 179.627 196.818 179.451C196.636 179.275 196.545 179.053 196.545 178.783C196.545 178.514 196.636 178.291 196.818 178.115C197 177.934 197.219 177.843 197.477 177.843C197.741 177.843 197.963 177.934 198.145 178.115C198.333 178.291 198.426 178.514 198.426 178.783C198.426 179.041 198.333 179.261 198.145 179.442C197.963 179.624 197.741 179.715 197.477 179.715ZM198.18 191H196.739V182H198.18V191ZM208.78 190.279C208.78 193.584 207.198 195.236 204.034 195.236C202.92 195.236 201.948 195.025 201.116 194.604V193.162C202.129 193.725 203.096 194.006 204.016 194.006C206.231 194.006 207.338 192.828 207.338 190.473V189.488H207.303C206.618 190.637 205.586 191.211 204.209 191.211C203.09 191.211 202.188 190.812 201.502 190.016C200.823 189.213 200.483 188.138 200.483 186.79C200.483 185.261 200.849 184.045 201.582 183.143C202.32 182.24 203.328 181.789 204.605 181.789C205.818 181.789 206.717 182.275 207.303 183.248H207.338V182H208.78V190.279ZM207.338 186.931V185.604C207.338 184.889 207.095 184.276 206.609 183.767C206.128 183.257 205.528 183.002 204.807 183.002C203.917 183.002 203.219 183.327 202.715 183.978C202.211 184.622 201.959 185.527 201.959 186.693C201.959 187.695 202.2 188.498 202.68 189.102C203.167 189.699 203.808 189.998 204.605 189.998C205.414 189.998 206.07 189.711 206.574 189.137C207.083 188.562 207.338 187.827 207.338 186.931ZM213.139 191H211.698V177.676H213.139V191ZM222.5 191H221.058V189.594H221.023C220.396 190.672 219.473 191.211 218.254 191.211C217.358 191.211 216.655 190.974 216.145 190.499C215.641 190.024 215.389 189.395 215.389 188.609C215.389 186.928 216.379 185.949 218.36 185.674L221.058 185.296C221.058 183.767 220.44 183.002 219.204 183.002C218.12 183.002 217.141 183.371 216.268 184.109V182.633C217.153 182.07 218.172 181.789 219.327 181.789C221.442 181.789 222.5 182.908 222.5 185.146V191ZM221.058 186.447L218.887 186.746C218.219 186.84 217.715 187.007 217.375 187.247C217.036 187.481 216.866 187.9 216.866 188.504C216.866 188.943 217.021 189.304 217.332 189.585C217.648 189.86 218.067 189.998 218.588 189.998C219.303 189.998 219.892 189.749 220.355 189.251C220.824 188.747 221.058 188.111 221.058 187.344V186.447ZM232.686 191H231.245V185.867C231.245 183.957 230.547 183.002 229.153 183.002C228.432 183.002 227.834 183.274 227.36 183.819C226.891 184.358 226.657 185.041 226.657 185.867V191H225.215V182H226.657V183.494H226.692C227.372 182.357 228.356 181.789 229.645 181.789C230.629 181.789 231.382 182.108 231.904 182.747C232.425 183.38 232.686 184.297 232.686 185.498V191ZM243.092 190.279C243.092 193.584 241.51 195.236 238.346 195.236C237.233 195.236 236.26 195.025 235.428 194.604V193.162C236.442 193.725 237.409 194.006 238.329 194.006C240.543 194.006 241.651 192.828 241.651 190.473V189.488H241.616C240.93 190.637 239.899 191.211 238.522 191.211C237.403 191.211 236.5 190.812 235.815 190.016C235.135 189.213 234.795 188.138 234.795 186.79C234.795 185.261 235.162 184.045 235.894 183.143C236.632 182.24 237.64 181.789 238.917 181.789C240.13 181.789 241.03 182.275 241.616 183.248H241.651V182H243.092V190.279ZM241.651 186.931V185.604C241.651 184.889 241.408 184.276 240.921 183.767C240.441 183.257 239.84 183.002 239.12 183.002C238.229 183.002 237.532 183.327 237.028 183.978C236.524 184.622 236.272 185.527 236.272 186.693C236.272 187.695 236.512 188.498 236.993 189.102C237.479 189.699 238.121 189.998 238.917 189.998C239.726 189.998 240.382 189.711 240.886 189.137C241.396 188.562 241.651 187.827 241.651 186.931ZM255.959 191H254.325L252.989 187.467H247.645L246.388 191H244.745L249.579 178.396H251.108L255.959 191ZM252.505 186.14L250.528 180.77C250.463 180.594 250.399 180.312 250.334 179.926H250.299C250.241 180.283 250.173 180.564 250.097 180.77L248.137 186.14H252.505ZM268.616 182L265.917 191H264.423L262.569 184.558C262.499 184.312 262.452 184.033 262.428 183.723H262.393C262.375 183.934 262.314 184.206 262.208 184.54L260.196 191H258.754L256.03 182H257.542L259.405 188.768C259.463 188.973 259.504 189.242 259.528 189.576H259.598C259.616 189.318 259.668 189.043 259.756 188.75L261.831 182H263.149L265.012 188.785C265.071 189.002 265.115 189.271 265.144 189.594H265.214C265.226 189.365 265.276 189.096 265.364 188.785L267.192 182H268.616ZM276.728 191H275.287V189.594H275.251C274.625 190.672 273.702 191.211 272.483 191.211C271.586 191.211 270.883 190.974 270.374 190.499C269.87 190.024 269.618 189.395 269.618 188.609C269.618 186.928 270.608 185.949 272.588 185.674L275.287 185.296C275.287 183.767 274.668 183.002 273.432 183.002C272.348 183.002 271.37 183.371 270.497 184.109V182.633C271.381 182.07 272.401 181.789 273.555 181.789C275.67 181.789 276.728 182.908 276.728 185.146V191ZM275.287 186.447L273.116 186.746C272.448 186.84 271.944 187.007 271.604 187.247C271.264 187.481 271.094 187.9 271.094 188.504C271.094 188.943 271.25 189.304 271.56 189.585C271.876 189.86 272.295 189.998 272.817 189.998C273.532 189.998 274.121 189.749 274.583 189.251C275.052 188.747 275.287 188.111 275.287 187.344V186.447ZM288.215 190.473C287.284 190.965 286.124 191.211 284.735 191.211C282.942 191.211 281.506 190.634 280.428 189.479C279.35 188.325 278.811 186.811 278.811 184.936C278.811 182.92 279.417 181.291 280.63 180.049C281.843 178.807 283.381 178.186 285.245 178.186C286.44 178.186 287.43 178.358 288.215 178.704V180.277C287.313 179.773 286.317 179.521 285.227 179.521C283.78 179.521 282.605 180.005 281.703 180.972C280.806 181.938 280.358 183.23 280.358 184.848C280.358 186.383 280.777 187.607 281.615 188.521C282.458 189.43 283.563 189.884 284.928 189.884C286.194 189.884 287.29 189.603 288.215 189.04V190.473ZM292.03 191H290.588V177.676H292.03V191ZM302.225 191H300.784V189.576H300.749C300.151 190.666 299.225 191.211 297.971 191.211C295.827 191.211 294.754 189.934 294.754 187.379V182H296.187V187.15C296.187 189.049 296.914 189.998 298.367 189.998C299.07 189.998 299.647 189.74 300.098 189.225C300.555 188.703 300.784 188.023 300.784 187.186V182H302.225V191ZM306.62 189.699H306.584V191H305.143V177.676H306.584V183.582H306.62C307.329 182.387 308.366 181.789 309.731 181.789C310.885 181.789 311.788 182.193 312.438 183.002C313.094 183.805 313.422 184.883 313.422 186.236C313.422 187.742 313.056 188.949 312.324 189.857C311.591 190.76 310.589 191.211 309.318 191.211C308.128 191.211 307.229 190.707 306.62 189.699ZM306.584 186.069V187.326C306.584 188.07 306.825 188.703 307.305 189.225C307.792 189.74 308.407 189.998 309.151 189.998C310.024 189.998 310.707 189.664 311.199 188.996C311.697 188.328 311.946 187.399 311.946 186.21C311.946 185.208 311.714 184.423 311.251 183.854C310.789 183.286 310.162 183.002 309.371 183.002C308.533 183.002 307.859 183.295 307.349 183.881C306.839 184.461 306.584 185.19 306.584 186.069ZM316.226 191.193C315.957 191.193 315.725 191.097 315.532 190.903C315.344 190.71 315.25 190.479 315.25 190.209C315.25 189.939 315.344 189.708 315.532 189.515C315.725 189.315 315.957 189.216 316.226 189.216C316.501 189.216 316.736 189.315 316.929 189.515C317.123 189.708 317.219 189.939 317.219 190.209C317.219 190.479 317.123 190.71 316.929 190.903C316.736 191.097 316.501 191.193 316.226 191.193ZM330.965 182L328.267 191H326.773L324.918 184.558C324.848 184.312 324.801 184.033 324.778 183.723H324.743C324.725 183.934 324.664 184.206 324.558 184.54L322.545 191H321.104L318.379 182H319.891L321.754 188.768C321.813 188.973 321.854 189.242 321.877 189.576H321.948C321.965 189.318 322.018 189.043 322.106 188.75L324.18 182H325.499L327.362 188.785C327.42 189.002 327.464 189.271 327.494 189.594H327.564C327.576 189.365 327.625 189.096 327.713 188.785L329.542 182H330.965ZM339.869 186.86H333.514C333.538 187.862 333.807 188.636 334.323 189.181C334.838 189.726 335.547 189.998 336.45 189.998C337.463 189.998 338.395 189.664 339.245 188.996V190.35C338.454 190.924 337.408 191.211 336.107 191.211C334.835 191.211 333.836 190.804 333.11 189.989C332.383 189.169 332.02 188.018 332.02 186.535C332.02 185.135 332.416 183.995 333.207 183.116C334.003 182.231 334.991 181.789 336.168 181.789C337.346 181.789 338.257 182.17 338.902 182.932C339.546 183.693 339.869 184.751 339.869 186.104V186.86ZM338.392 185.639C338.386 184.807 338.184 184.159 337.786 183.696C337.393 183.233 336.845 183.002 336.142 183.002C335.462 183.002 334.885 183.245 334.411 183.731C333.936 184.218 333.643 184.854 333.532 185.639H338.392ZM343.534 189.699H343.499V191H342.057V177.676H343.499V183.582H343.534C344.243 182.387 345.28 181.789 346.645 181.789C347.799 181.789 348.702 182.193 349.352 183.002C350.008 183.805 350.336 184.883 350.336 186.236C350.336 187.742 349.97 188.949 349.238 189.857C348.505 190.76 347.503 191.211 346.232 191.211C345.042 191.211 344.143 190.707 343.534 189.699ZM343.499 186.069V187.326C343.499 188.07 343.739 188.703 344.219 189.225C344.706 189.74 345.321 189.998 346.065 189.998C346.938 189.998 347.621 189.664 348.113 188.996C348.611 188.328 348.86 187.399 348.86 186.21C348.86 185.208 348.628 184.423 348.166 183.854C347.703 183.286 347.076 183.002 346.285 183.002C345.447 183.002 344.773 183.295 344.263 183.881C343.753 184.461 343.499 185.19 343.499 186.069ZM353.14 191.193C352.871 191.193 352.639 191.097 352.446 190.903C352.258 190.71 352.165 190.479 352.165 190.209C352.165 189.939 352.258 189.708 352.446 189.515C352.639 189.315 352.871 189.216 353.14 189.216C353.416 189.216 353.65 189.315 353.843 189.515C354.037 189.708 354.133 189.939 354.133 190.209C354.133 190.479 354.037 190.71 353.843 190.903C353.65 191.097 353.416 191.193 353.14 191.193ZM362.984 191H361.542V189.594H361.507C360.88 190.672 359.958 191.211 358.739 191.211C357.842 191.211 357.139 190.974 356.629 190.499C356.125 190.024 355.874 189.395 355.874 188.609C355.874 186.928 356.864 185.949 358.844 185.674L361.542 185.296C361.542 183.767 360.924 183.002 359.688 183.002C358.604 183.002 357.625 183.371 356.752 184.109V182.633C357.637 182.07 358.657 181.789 359.811 181.789C361.926 181.789 362.984 182.908 362.984 185.146V191ZM361.542 186.447L359.372 186.746C358.704 186.84 358.2 187.007 357.86 187.247C357.52 187.481 357.35 187.9 357.35 188.504C357.35 188.943 357.505 189.304 357.816 189.585C358.132 189.86 358.551 189.998 359.073 189.998C359.788 189.998 360.376 189.749 360.839 189.251C361.308 188.747 361.542 188.111 361.542 187.344V186.447ZM367.176 189.699H367.141V195.14H365.7V182H367.141V183.582H367.176C367.885 182.387 368.922 181.789 370.288 181.789C371.448 181.789 372.353 182.193 373.003 183.002C373.654 183.805 373.979 184.883 373.979 186.236C373.979 187.742 373.613 188.949 372.88 189.857C372.148 190.76 371.146 191.211 369.875 191.211C368.708 191.211 367.809 190.707 367.176 189.699ZM367.141 186.069V187.326C367.141 188.07 367.381 188.703 367.862 189.225C368.348 189.74 368.963 189.998 369.708 189.998C370.581 189.998 371.263 189.664 371.755 188.996C372.253 188.328 372.502 187.399 372.502 186.21C372.502 185.208 372.271 184.423 371.808 183.854C371.345 183.286 370.718 183.002 369.927 183.002C369.089 183.002 368.416 183.295 367.906 183.881C367.396 184.461 367.141 185.19 367.141 186.069ZM377.758 189.699H377.723V195.14H376.282V182H377.723V183.582H377.758C378.467 182.387 379.504 181.789 380.87 181.789C382.03 181.789 382.935 182.193 383.585 183.002C384.236 183.805 384.561 184.883 384.561 186.236C384.561 187.742 384.195 188.949 383.462 189.857C382.73 190.76 381.728 191.211 380.457 191.211C379.291 191.211 378.391 190.707 377.758 189.699ZM377.723 186.069V187.326C377.723 188.07 377.963 188.703 378.444 189.225C378.93 189.74 379.545 189.998 380.29 189.998C381.163 189.998 381.845 189.664 382.337 188.996C382.835 188.328 383.084 187.399 383.084 186.21C383.084 185.208 382.853 184.423 382.39 183.854C381.927 183.286 381.3 183.002 380.509 183.002C379.671 183.002 378.998 183.295 378.488 183.881C377.978 184.461 377.723 185.19 377.723 186.069Z" fill="#034B78"/>
</g>
<g id="LinkedIn">
<g id="Rectangle 3">
<rect x="133.608" y="303" width="329.005" height="37" rx="18.5" fill="#AFE9E5" style="mix-blend-mode:multiply"/>
</g>
<path id="@JMBiglangawa" d="M169.475 324.309H169.431C169.003 325.703 168.163 326.4 166.909 326.4C166.106 326.4 165.458 326.104 164.966 325.513C164.48 324.921 164.237 324.124 164.237 323.122C164.237 321.798 164.574 320.699 165.248 319.826C165.927 318.947 166.818 318.508 167.919 318.508C168.341 318.508 168.716 318.616 169.044 318.833C169.378 319.05 169.592 319.322 169.686 319.65H169.721C169.733 319.486 169.762 319.149 169.809 318.64H170.908C170.632 321.868 170.495 323.512 170.495 323.57C170.495 324.783 170.843 325.39 171.541 325.39C172.173 325.39 172.698 325.047 173.114 324.361C173.536 323.676 173.747 322.788 173.747 321.698C173.747 320.087 173.237 318.771 172.217 317.752C171.198 316.732 169.786 316.223 167.981 316.223C166.241 316.223 164.802 316.832 163.666 318.051C162.529 319.27 161.96 320.793 161.96 322.621C161.96 324.42 162.5 325.873 163.578 326.98C164.662 328.082 166.121 328.633 167.955 328.633C169.402 328.633 170.638 328.393 171.664 327.912V329.002C170.65 329.436 169.384 329.652 167.867 329.652C165.734 329.652 164.014 329.011 162.708 327.728C161.407 326.438 160.756 324.754 160.756 322.674C160.756 320.529 161.439 318.751 162.804 317.339C164.175 315.927 165.924 315.221 168.051 315.221C170.043 315.221 171.693 315.812 173 316.996C174.306 318.18 174.959 319.724 174.959 321.628C174.959 323.022 174.614 324.168 173.922 325.064C173.237 325.955 172.399 326.4 171.409 326.4C170.125 326.4 169.481 325.703 169.475 324.309ZM167.902 319.527C167.175 319.527 166.586 319.873 166.135 320.564C165.69 321.256 165.467 322.114 165.467 323.14C165.467 323.831 165.617 324.376 165.916 324.774C166.22 325.173 166.625 325.372 167.128 325.372C167.855 325.372 168.429 325.012 168.851 324.291C169.279 323.564 169.493 322.604 169.493 321.408C169.493 320.154 168.962 319.527 167.902 319.527ZM181.314 323.482C181.314 324.977 180.998 326.14 180.365 326.972C179.732 327.798 178.885 328.211 177.825 328.211C177.333 328.211 176.928 328.141 176.612 328V326.541C176.928 326.77 177.338 326.884 177.842 326.884C179.172 326.884 179.837 325.756 179.837 323.5V315.396H181.314V323.482ZM197.372 328H195.904V319.545C195.904 318.877 195.945 318.06 196.027 317.093H195.992C195.851 317.661 195.725 318.068 195.614 318.314L191.307 328H190.586L186.289 318.385C186.166 318.104 186.04 317.673 185.911 317.093H185.875C185.922 317.597 185.946 318.42 185.946 319.562V328H184.522V315.396H186.473L190.34 324.186C190.639 324.859 190.833 325.363 190.92 325.697H190.973C191.225 325.006 191.427 324.49 191.58 324.15L195.526 315.396H197.372V328ZM200.694 328V315.396H204.28C205.37 315.396 206.234 315.663 206.873 316.196C207.511 316.729 207.831 317.424 207.831 318.279C207.831 318.994 207.637 319.615 207.25 320.143C206.864 320.67 206.331 321.045 205.651 321.268V321.303C206.5 321.402 207.18 321.725 207.69 322.27C208.2 322.809 208.455 323.512 208.455 324.379C208.455 325.457 208.068 326.33 207.294 326.998C206.521 327.666 205.545 328 204.368 328H200.694ZM202.17 316.732V320.802H203.682C204.491 320.802 205.126 320.608 205.589 320.222C206.052 319.829 206.284 319.278 206.284 318.569C206.284 317.345 205.478 316.732 203.867 316.732H202.17ZM202.17 322.129V326.664H204.174C205.042 326.664 205.712 326.459 206.187 326.049C206.667 325.639 206.908 325.076 206.908 324.361C206.908 322.873 205.894 322.129 203.867 322.129H202.17ZM211.557 316.715C211.299 316.715 211.08 316.627 210.898 316.451C210.716 316.275 210.625 316.053 210.625 315.783C210.625 315.514 210.716 315.291 210.898 315.115C211.08 314.934 211.299 314.843 211.557 314.843C211.821 314.843 212.043 314.934 212.225 315.115C212.413 315.291 212.506 315.514 212.506 315.783C212.506 316.041 212.413 316.261 212.225 316.442C212.043 316.624 211.821 316.715 211.557 316.715ZM212.26 328H210.819V319H212.26V328ZM222.86 327.279C222.86 330.584 221.278 332.236 218.114 332.236C217 332.236 216.028 332.025 215.196 331.604V330.162C216.209 330.725 217.176 331.006 218.096 331.006C220.311 331.006 221.418 329.828 221.418 327.473V326.488H221.383C220.698 327.637 219.667 328.211 218.29 328.211C217.17 328.211 216.268 327.812 215.583 327.016C214.903 326.213 214.563 325.138 214.563 323.79C214.563 322.261 214.929 321.045 215.662 320.143C216.4 319.24 217.408 318.789 218.685 318.789C219.898 318.789 220.797 319.275 221.383 320.248H221.418V319H222.86V327.279ZM221.418 323.931V322.604C221.418 321.889 221.175 321.276 220.689 320.767C220.208 320.257 219.608 320.002 218.887 320.002C217.997 320.002 217.299 320.327 216.795 320.978C216.292 321.622 216.04 322.527 216.04 323.693C216.04 324.695 216.28 325.498 216.76 326.102C217.247 326.699 217.888 326.998 218.685 326.998C219.494 326.998 220.15 326.711 220.654 326.137C221.164 325.562 221.418 324.827 221.418 323.931ZM227.219 328H225.778V314.676H227.219V328ZM236.58 328H235.138V326.594H235.103C234.476 327.672 233.553 328.211 232.334 328.211C231.438 328.211 230.735 327.974 230.225 327.499C229.721 327.024 229.469 326.395 229.469 325.609C229.469 323.928 230.459 322.949 232.44 322.674L235.138 322.296C235.138 320.767 234.52 320.002 233.284 320.002C232.2 320.002 231.221 320.371 230.348 321.109V319.633C231.233 319.07 232.252 318.789 233.407 318.789C235.522 318.789 236.58 319.908 236.58 322.146V328ZM235.138 323.447L232.967 323.746C232.299 323.84 231.795 324.007 231.456 324.247C231.116 324.481 230.946 324.9 230.946 325.504C230.946 325.943 231.101 326.304 231.412 326.585C231.728 326.86 232.147 326.998 232.668 326.998C233.383 326.998 233.972 326.749 234.435 326.251C234.904 325.747 235.138 325.111 235.138 324.344V323.447ZM246.766 328H245.325V322.867C245.325 320.957 244.627 320.002 243.233 320.002C242.512 320.002 241.915 320.274 241.44 320.819C240.971 321.358 240.737 322.041 240.737 322.867V328H239.295V319H240.737V320.494H240.772C241.452 319.357 242.436 318.789 243.725 318.789C244.709 318.789 245.462 319.108 245.984 319.747C246.505 320.38 246.766 321.297 246.766 322.498V328ZM257.172 327.279C257.172 330.584 255.59 332.236 252.426 332.236C251.313 332.236 250.34 332.025 249.508 331.604V330.162C250.522 330.725 251.489 331.006 252.409 331.006C254.624 331.006 255.731 329.828 255.731 327.473V326.488H255.696C255.01 327.637 253.979 328.211 252.602 328.211C251.483 328.211 250.581 327.812 249.895 327.016C249.215 326.213 248.875 325.138 248.875 323.79C248.875 322.261 249.242 321.045 249.974 320.143C250.712 319.24 251.72 318.789 252.998 318.789C254.21 318.789 255.11 319.275 255.696 320.248H255.731V319H257.172V327.279ZM255.731 323.931V322.604C255.731 321.889 255.488 321.276 255.001 320.767C254.521 320.257 253.92 320.002 253.2 320.002C252.309 320.002 251.612 320.327 251.108 320.978C250.604 321.622 250.352 322.527 250.352 323.693C250.352 324.695 250.592 325.498 251.073 326.102C251.559 326.699 252.201 326.998 252.998 326.998C253.806 326.998 254.462 326.711 254.966 326.137C255.476 325.562 255.731 324.827 255.731 323.931ZM266.533 328H265.091V326.594H265.056C264.429 327.672 263.506 328.211 262.288 328.211C261.391 328.211 260.688 327.974 260.178 327.499C259.674 327.024 259.422 326.395 259.422 325.609C259.422 323.928 260.413 322.949 262.393 322.674L265.091 322.296C265.091 320.767 264.473 320.002 263.237 320.002C262.153 320.002 261.174 320.371 260.301 321.109V319.633C261.186 319.07 262.206 318.789 263.36 318.789C265.475 318.789 266.533 319.908 266.533 322.146V328ZM265.091 323.447L262.92 323.746C262.252 323.84 261.749 324.007 261.409 324.247C261.069 324.481 260.899 324.9 260.899 325.504C260.899 325.943 261.054 326.304 261.365 326.585C261.681 326.86 262.1 326.998 262.622 326.998C263.336 326.998 263.925 326.749 264.388 326.251C264.857 325.747 265.091 325.111 265.091 324.344V323.447ZM280.586 319L277.888 328H276.394L274.54 321.558C274.469 321.312 274.422 321.033 274.399 320.723H274.364C274.346 320.934 274.285 321.206 274.179 321.54L272.167 328H270.725L268 319H269.512L271.375 325.768C271.434 325.973 271.475 326.242 271.499 326.576H271.569C271.586 326.318 271.639 326.043 271.727 325.75L273.801 319H275.12L276.983 325.785C277.042 326.002 277.085 326.271 277.115 326.594H277.185C277.197 326.365 277.247 326.096 277.334 325.785L279.163 319H280.586ZM288.699 328H287.257V326.594H287.222C286.595 327.672 285.672 328.211 284.454 328.211C283.557 328.211 282.854 327.974 282.344 327.499C281.84 327.024 281.588 326.395 281.588 325.609C281.588 323.928 282.579 322.949 284.559 322.674L287.257 322.296C287.257 320.767 286.639 320.002 285.403 320.002C284.319 320.002 283.34 320.371 282.467 321.109V319.633C283.352 319.07 284.372 318.789 285.526 318.789C287.641 318.789 288.699 319.908 288.699 322.146V328ZM287.257 323.447L285.086 323.746C284.418 323.84 283.915 324.007 283.575 324.247C283.235 324.481 283.065 324.9 283.065 325.504C283.065 325.943 283.22 326.304 283.531 326.585C283.847 326.86 284.266 326.998 284.788 326.998C285.502 326.998 286.091 326.749 286.554 326.251C287.023 325.747 287.257 325.111 287.257 324.344V323.447Z" fill="#034B78"/>
<g id="akar-icons:linkedin-fill">
<g id="Group_3">
<path id="Vector_3" fill-rule="evenodd" clip-rule="evenodd" d="M78.4771 304.385C78.4771 303.453 78.8333 302.56 79.4674 301.901C80.1015 301.242 80.9616 300.872 81.8584 300.872H115.565C116.009 300.871 116.449 300.961 116.86 301.137C117.271 301.314 117.644 301.572 117.959 301.899C118.273 302.225 118.523 302.613 118.693 303.039C118.863 303.466 118.95 303.923 118.95 304.385V339.411C118.95 339.873 118.863 340.33 118.693 340.757C118.524 341.184 118.274 341.572 117.96 341.898C117.646 342.225 117.273 342.484 116.862 342.661C116.451 342.838 116.011 342.929 115.567 342.928H81.8584C81.4142 342.928 80.9743 342.837 80.564 342.661C80.1536 342.484 79.7808 342.225 79.4668 341.898C79.1528 341.572 78.9037 341.184 78.7339 340.758C78.5641 340.331 78.4768 339.874 78.4771 339.413V304.385ZM94.4969 316.907H99.9773V319.767C100.768 318.122 102.792 316.643 105.833 316.643C111.663 316.643 113.045 319.918 113.045 325.926V337.056H107.145V327.295C107.145 323.873 106.354 321.942 104.345 321.942C101.558 321.942 100.399 324.024 100.399 327.295V337.056H94.4969V316.907ZM84.3787 336.794H90.2804V316.643H84.3787V336.792V336.794ZM91.1248 310.071C91.1359 310.596 91.046 311.118 90.8603 311.606C90.6746 312.095 90.3969 312.54 90.0435 312.915C89.6901 313.291 89.268 313.589 88.8021 313.793C88.3362 313.996 87.8359 314.101 87.3305 314.101C86.825 314.101 86.3247 313.996 85.8588 313.793C85.3929 313.589 84.9709 313.291 84.6175 312.915C84.264 312.54 83.9863 312.095 83.8006 311.606C83.6149 311.118 83.525 310.596 83.5362 310.071C83.558 309.04 83.9673 308.059 84.6765 307.338C85.3857 306.617 86.3384 306.214 87.3305 306.214C88.3226 306.214 89.2752 306.617 89.9844 307.338C90.6936 308.059 91.103 309.04 91.1248 310.071V310.071Z" fill="#045873"/>
</g>
</g>
</g>
</g>
<g id="Logo">
<path d="M498.452 40.5779C491.052 37.58 481.663 32.0893 474.477 22.2L474.467 22.2039C474.758 30.1577 463.017 39.8412 457.628 42.7537C457.162 44.8882 456.916 47.1133 456.916 49.4001C456.916 49.9657 456.931 50.5275 456.96 51.0851C457.471 45.1174 462.275 40.4392 468.127 40.4392C474.318 40.4392 479.338 45.677 479.338 52.1381C479.338 52.5018 479.322 52.8616 479.291 53.2168L489.28 53.2168C489.25 52.8616 489.234 52.5018 489.234 52.1381C489.234 46.2914 493.231 41.4464 498.452 40.5779Z" fill="#36BDAD"/>
<path d="M489.534 54.8762L479.029 54.8762C477.848 60.0165 473.415 63.8371 468.127 63.8371C463.435 63.8371 459.416 60.8297 457.745 56.5616C460.717 69.1366 471.334 78.44 483.977 78.44C496.568 78.44 507.15 69.2119 510.172 56.7145C508.512 60.9014 504.643 63.8371 500.136 63.8371C494.994 63.8371 490.683 60.0165 489.534 54.8762Z" fill="#36BDAD"/>
<path d="M507.396 43.411C509.4 45.3322 510.738 48.0366 510.993 51.0761C511.023 50.5215 511.038 49.9626 511.038 49.4001C511.038 47.5572 510.878 45.7544 510.572 44.0067C510.518 44.0002 509.343 43.8547 507.396 43.411Z" fill="#36BDAD"/>
</g>
</g>
<defs>
<filter id="filter0_d" x="0" y="0" width="535" height="378" filterUnits="userSpaceOnUse" color-interpolation-filters="sRGB">
<feFlood flood-opacity="0" result="BackgroundImageFix"/>
<feColorMatrix in="SourceAlpha" type="matrix" values="0 0 0 0 0 0 0 0 0 0 0 0 0 0 0 0 0 0 127 0"/>
<feOffset dy="4"/>
<feGaussianBlur stdDeviation="2"/>
<feColorMatrix type="matrix" values="0 0 0 0 0 0 0 0 0 0 0 0 0 0 0 0 0 0 0.25 0"/>
<feBlend mode="normal" in2="BackgroundImageFix" result="effect1_dropShadow"/>
<feBlend mode="normal" in="SourceGraphic" in2="effect1_dropShadow" result="shape"/>
</filter>
<linearGradient id="paint0_linear" x1="260.907" y1="-9.01687e-05" x2="-77.3541" y2="103.109" gradientUnits="userSpaceOnUse">
<stop stop-color="#82DED9"/>
<stop offset="1" stop-color="#2C99E9"/>
</linearGradient>
<linearGradient id="paint1_linear" x1="260.907" y1="-9.01687e-05" x2="-77.3541" y2="103.109" gradientUnits="userSpaceOnUse">
<stop stop-color="#82DED9"/>
<stop offset="1" stop-color="#2C99E9"/>
</linearGradient>
<linearGradient id="paint2_linear" x1="260.907" y1="-4.94032e-05" x2="-77.3541" y2="103.109" gradientUnits="userSpaceOnUse">
<stop stop-color="#82DED9" stop-opacity="0.4"/>
<stop offset="1" stop-color="#2C99E9"/>
</linearGradient>
<linearGradient id="paint3_linear" x1="260.907" y1="-8.08269e-05" x2="-77.3541" y2="103.109" gradientUnits="userSpaceOnUse">
<stop stop-color="#82DED9" stop-opacity="0.4"/>
<stop offset="1" stop-color="#2C99E9"/>
</linearGradient>
<linearGradient id="paint4_linear" x1="260.907" y1="6.54186e-05" x2="-77.3541" y2="103.109" gradientUnits="userSpaceOnUse">
<stop stop-color="#82DED9" stop-opacity="0.4"/>
<stop offset="1" stop-color="#2C99E9"/>
</linearGradient>
<linearGradient id="paint5_linear" x1="261.31" y1="3.02393e-05" x2="-77.3913" y2="103.406" gradientUnits="userSpaceOnUse">
<stop stop-color="#68DDD7"/>
<stop offset="1" stop-color="#2C99E9"/>
</linearGradient>
<linearGradient id="paint6_linear" x1="261.31" y1="3.02393e-05" x2="-77.3913" y2="103.406" gradientUnits="userSpaceOnUse">
<stop stop-color="#68DDD7"/>
<stop offset="1" stop-color="#2C99E9"/>
</linearGradient>
<clipPath id="clip0">
<rect width="44.1522" height="45.88" fill="white" transform="translate(76.6375 230.88)"/>
</clipPath>
<clipPath id="clip1">
<rect width="44.1522" height="45.88" fill="white" transform="translate(76.6375 161.32)"/>
</clipPath>
</defs>
</svg>
