<svg width="373" height="235" viewBox="0 0 373 235" fill="currentColor" xmlns="http://www.w3.org/2000/svg">
<rect width="373" height="235" rx="10" fill="#6A6A6A"/>
<path d="M0 9.99999C0 4.47714 4.47715 0 10 0H363C368.523 0 373 4.47715 373 10V24.1482H0V9.99999Z" fill="#ADADAD"/>
<rect x="147.159" y="77.3006" width="78.9378" height="80.6578" fill="#8F70E7"/>
<rect x="125.994" y="77.3006" width="16.0164" height="4.67582" fill="#8F70E7"/>
<rect x="125.994" y="92.4969" width="16.0164" height="4.67582" fill="#8F70E7"/>
<rect x="125.994" y="107.693" width="16.0164" height="4.67582" fill="#8F70E7"/>
<rect x="125.994" y="122.89" width="16.0164" height="4.67582" fill="#8F70E7"/>
<rect x="125.994" y="138.086" width="16.0164" height="4.67582" fill="#8F70E7"/>
<rect x="125.994" y="153.283" width="16.0164" height="4.67582" fill="#8F70E7"/>
<rect x="226.097" y="55.675" width="16.3654" height="4.57611" transform="rotate(90 226.097 55.675)" fill="#8F70E7"/>
<rect x="211.224" y="55.675" width="16.3654" height="4.57611" transform="rotate(90 211.224 55.675)" fill="#8F70E7"/>
<rect x="196.352" y="55.675" width="16.3654" height="4.57611" transform="rotate(90 196.352 55.675)" fill="#8F70E7"/>
<rect x="181.48" y="55.675" width="16.3654" height="4.57611" transform="rotate(90 181.48 55.675)" fill="#8F70E7"/>
<rect x="166.607" y="55.675" width="16.3654" height="4.57611" transform="rotate(90 166.607 55.675)" fill="#8F70E7"/>
<rect x="151.735" y="55.675" width="16.3654" height="4.57611" transform="rotate(90 151.735 55.675)" fill="#8F70E7"/>
<rect x="226.097" y="163.219" width="16.3654" height="4.57611" transform="rotate(90 226.097 163.219)" fill="#8F70E7"/>
<rect x="211.224" y="163.219" width="16.3654" height="4.57611" transform="rotate(90 211.224 163.219)" fill="#8F70E7"/>
<rect x="196.352" y="163.219" width="16.3654" height="4.57611" transform="rotate(90 196.352 163.219)" fill="#8F70E7"/>
<rect x="181.48" y="163.219" width="16.3654" height="4.57611" transform="rotate(90 181.48 163.219)" fill="#8F70E7"/>
<rect x="166.607" y="163.219" width="16.3654" height="4.57611" transform="rotate(90 166.607 163.219)" fill="#8F70E7"/>
<rect x="151.735" y="163.219" width="16.3654" height="4.57611" transform="rotate(90 151.735 163.219)" fill="#8F70E7"/>
<rect x="231.245" y="77.3006" width="16.0164" height="4.67582" fill="#8F70E7"/>
<rect x="231.245" y="92.4969" width="16.0164" height="4.67582" fill="#8F70E7"/>
<rect x="231.245" y="107.693" width="16.0164" height="4.67582" fill="#8F70E7"/>
<rect x="231.245" y="122.89" width="16.0164" height="4.67582" fill="#8F70E7"/>
<rect x="231.245" y="138.086" width="16.0164" height="4.67582" fill="#8F70E7"/>
<rect x="231.245" y="153.283" width="16.0164" height="4.67582" fill="#8F70E7"/>
<g clip-path="url(#clip0_179_847)">
<path d="M202.644 104.27V107.61C202.644 110.553 195.47 112.954 186.628 112.954C177.785 112.954 170.611 110.553 170.611 107.61V104.27C170.611 101.327 177.785 98.9263 186.628 98.9263C195.47 98.9263 202.644 101.327 202.644 104.27ZM202.644 111.785V119.299C202.644 122.243 195.47 124.643 186.628 124.643C177.785 124.643 170.611 122.243 170.611 119.299V111.785C174.052 114.206 180.35 115.333 186.628 115.333C192.905 115.333 199.203 114.206 202.644 111.785ZM202.644 123.474V130.989C202.644 133.932 195.47 136.333 186.628 136.333C177.785 136.333 170.611 133.932 170.611 130.989V123.474C174.052 125.896 180.35 127.023 186.628 127.023C192.905 127.023 199.203 125.896 202.644 123.474Z" fill="white"/>
</g>
<path d="M25.1849 56.3188C23.9584 56.8266 22.6732 57.0805 21.3295 57.0805C19.1654 57.0805 17.5013 56.436 16.3373 55.1469C15.181 53.85 14.6029 51.936 14.6029 49.4047C14.6029 48.1782 14.7631 47.0688 15.0834 46.0766C15.4037 45.0844 15.8607 44.2446 16.4545 43.5571C17.0482 42.8618 17.767 42.3266 18.6107 41.9516C19.4545 41.5766 20.3998 41.3891 21.4467 41.3891C22.1576 41.3891 22.8177 41.4516 23.4271 41.5766C24.0365 41.6938 24.6224 41.8774 25.1849 42.1274V44.1782C24.6302 43.8735 24.056 43.643 23.4623 43.4868C22.8685 43.3227 22.2201 43.2407 21.517 43.2407C20.7982 43.2407 20.1459 43.3774 19.5599 43.6508C18.9818 43.9164 18.4896 44.3071 18.0834 44.8227C17.6771 45.3305 17.3646 45.9555 17.1459 46.6977C16.9271 47.4321 16.8177 48.2719 16.8177 49.2172C16.8177 51.2016 17.2201 52.6977 18.0248 53.7055C18.8295 54.7133 20.0092 55.2172 21.5638 55.2172C22.2201 55.2172 22.849 55.143 23.4506 54.9946C24.0521 54.8383 24.6302 54.6235 25.1849 54.35V56.3188ZM33.3177 44.9164C33.5599 44.9164 33.7904 44.9672 34.0092 45.0688C34.2279 45.1625 34.4193 45.2914 34.5834 45.4555C34.7474 45.6196 34.8763 45.811 34.9701 46.0297C35.0717 46.2485 35.1224 46.4789 35.1224 46.7211C35.1224 46.9711 35.0717 47.2055 34.9701 47.4243C34.8763 47.6352 34.7474 47.8227 34.5834 47.9868C34.4193 48.1508 34.2279 48.2797 34.0092 48.3735C33.7904 48.4672 33.5599 48.5141 33.3177 48.5141C33.0677 48.5141 32.8334 48.4672 32.6146 48.3735C32.4037 48.2797 32.2162 48.1508 32.0521 47.9868C31.8881 47.8227 31.7592 47.6352 31.6654 47.4243C31.5717 47.2055 31.5248 46.9711 31.5248 46.7211C31.5248 46.4789 31.5717 46.2485 31.6654 46.0297C31.7592 45.811 31.8881 45.6196 32.0521 45.4555C32.2162 45.2914 32.4037 45.1625 32.6146 45.0688C32.8334 44.9672 33.0677 44.9164 33.3177 44.9164ZM33.3177 53.5063C33.5599 53.5063 33.7904 53.5571 34.0092 53.6586C34.2279 53.7524 34.4193 53.8813 34.5834 54.0453C34.7474 54.2094 34.8763 54.4008 34.9701 54.6196C35.0717 54.8383 35.1224 55.0688 35.1224 55.311C35.1224 55.561 35.0717 55.7953 34.9701 56.0141C34.8763 56.225 34.7474 56.4125 34.5834 56.5766C34.4193 56.7407 34.2279 56.8696 34.0092 56.9633C33.7904 57.0571 33.5599 57.1039 33.3177 57.1039C33.0677 57.1039 32.8334 57.0571 32.6146 56.9633C32.4037 56.8696 32.2162 56.7407 32.0521 56.5766C31.8881 56.4125 31.7592 56.225 31.6654 56.0141C31.5717 55.7953 31.5248 55.561 31.5248 55.311C31.5248 55.0688 31.5717 54.8383 31.6654 54.6196C31.7592 54.4008 31.8881 54.2094 32.0521 54.0453C32.2162 53.8813 32.4037 53.7524 32.6146 53.6586C32.8334 53.5571 33.0677 53.5063 33.3177 53.5063ZM51.7748 59.4125H49.8295L41.7904 40.3344H43.7357L51.7748 59.4125ZM68.7552 45.2328L70.0209 43.9321L77.8959 50.5063L70.0209 57.0805L68.7552 55.7914L75.142 50.5297L68.7552 45.2328Z" fill="white"/>
<path d="M154.884 211.604H154.233C153.103 211.604 152.262 211.337 151.711 210.804C151.16 210.276 150.885 209.474 150.885 208.396V205.372C150.885 205.085 150.853 204.83 150.788 204.607C150.724 204.379 150.609 204.188 150.445 204.036C150.287 203.878 150.073 203.758 149.804 203.676C149.54 203.594 149.206 203.553 148.802 203.553H148.424V202.331H148.802C149.229 202.331 149.578 202.296 149.848 202.226C150.117 202.155 150.328 202.05 150.48 201.909C150.633 201.763 150.738 201.578 150.797 201.355C150.855 201.133 150.885 200.869 150.885 200.564V198.481C150.885 197.989 150.943 197.547 151.061 197.154C151.178 196.756 151.368 196.419 151.632 196.144C151.901 195.862 152.247 195.648 152.669 195.502C153.097 195.35 153.618 195.273 154.233 195.273H154.884V196.504H154.365C153.006 196.504 152.326 197.163 152.326 198.481V200.529C152.326 201.959 151.708 202.765 150.472 202.946C151.72 203.069 152.344 203.872 152.344 205.354V208.36C152.344 209.702 153.018 210.373 154.365 210.373H154.884V211.604ZM218.288 195.273H218.938C220.069 195.273 220.91 195.54 221.461 196.073C222.012 196.601 222.287 197.403 222.287 198.481V200.512C222.287 200.799 222.319 201.057 222.384 201.285C222.448 201.508 222.56 201.698 222.718 201.856C222.882 202.009 223.099 202.126 223.368 202.208C223.638 202.29 223.975 202.331 224.379 202.331H224.757V203.553H224.379C223.951 203.553 223.6 203.588 223.324 203.658C223.055 203.729 222.844 203.837 222.691 203.983C222.539 204.124 222.434 204.306 222.375 204.528C222.316 204.751 222.287 205.015 222.287 205.319V208.396C222.287 208.888 222.229 209.33 222.111 209.723C221.994 210.121 221.804 210.458 221.54 210.733C221.276 211.015 220.931 211.229 220.503 211.375C220.075 211.527 219.554 211.604 218.938 211.604H218.288V210.373H218.815C220.169 210.373 220.846 209.714 220.846 208.396V205.354C220.846 203.925 221.464 203.122 222.7 202.946C221.452 202.812 220.828 202.006 220.828 200.529V198.517C220.828 197.175 220.157 196.504 218.815 196.504H218.288V195.273Z" fill="white"/>
<path d="M176.03 208H174.264L172.55 204.326C172.421 204.045 172.289 203.813 172.154 203.632C172.02 203.444 171.873 203.298 171.715 203.192C171.562 203.081 171.393 203.002 171.205 202.955C171.023 202.908 170.818 202.885 170.59 202.885H169.852V208H168.287V196.513H171.363C172.031 196.513 172.605 196.586 173.086 196.732C173.566 196.879 173.959 197.084 174.264 197.348C174.574 197.611 174.8 197.931 174.94 198.306C175.087 198.675 175.16 199.085 175.16 199.536C175.16 199.894 175.107 200.233 175.002 200.556C174.896 200.872 174.738 201.162 174.527 201.426C174.322 201.684 174.064 201.909 173.754 202.103C173.449 202.29 173.098 202.431 172.699 202.524C173.021 202.636 173.294 202.832 173.517 203.113C173.745 203.389 173.977 203.758 174.211 204.221L176.03 208ZM173.525 199.668C173.525 199.053 173.332 198.593 172.945 198.288C172.564 197.983 172.025 197.831 171.328 197.831H169.852V201.628H171.117C171.486 201.628 171.817 201.587 172.11 201.505C172.409 201.417 172.661 201.291 172.866 201.127C173.077 200.957 173.238 200.752 173.35 200.512C173.467 200.266 173.525 199.984 173.525 199.668ZM184.986 208H178.456V196.513H184.986V197.831H180.021V201.391H184.793V202.709H180.021V206.664H184.986V208ZM195.349 204.889C195.349 205.434 195.237 205.911 195.015 206.321C194.792 206.731 194.481 207.074 194.083 207.35C193.685 207.619 193.204 207.821 192.642 207.956C192.085 208.091 191.47 208.158 190.796 208.158C190.491 208.158 190.187 208.146 189.882 208.123C189.583 208.1 189.293 208.07 189.012 208.035C188.736 208 188.476 207.959 188.229 207.912C187.983 207.865 187.761 207.815 187.562 207.763V206.251C188.001 206.415 188.493 206.544 189.038 206.638C189.589 206.731 190.213 206.778 190.91 206.778C191.414 206.778 191.842 206.74 192.193 206.664C192.551 206.582 192.841 206.465 193.063 206.312C193.292 206.154 193.456 205.964 193.556 205.741C193.661 205.519 193.714 205.264 193.714 204.977C193.714 204.666 193.626 204.402 193.45 204.186C193.28 203.963 193.055 203.767 192.773 203.597C192.492 203.421 192.17 203.263 191.807 203.122C191.449 202.976 191.083 202.826 190.708 202.674C190.333 202.521 189.964 202.357 189.601 202.182C189.243 202 188.924 201.789 188.643 201.549C188.361 201.303 188.133 201.016 187.957 200.688C187.787 200.359 187.702 199.97 187.702 199.519C187.702 199.126 187.784 198.739 187.948 198.358C188.112 197.978 188.367 197.641 188.713 197.348C189.059 197.049 189.501 196.809 190.04 196.627C190.585 196.445 191.232 196.354 191.982 196.354C192.176 196.354 192.384 196.363 192.606 196.381C192.835 196.398 193.063 196.425 193.292 196.46C193.526 196.489 193.755 196.524 193.978 196.565C194.206 196.606 194.417 196.65 194.61 196.697V198.104C194.159 197.975 193.708 197.878 193.257 197.813C192.806 197.743 192.369 197.708 191.947 197.708C191.051 197.708 190.392 197.857 189.97 198.156C189.548 198.455 189.337 198.856 189.337 199.36C189.337 199.671 189.422 199.938 189.592 200.16C189.768 200.383 189.996 200.582 190.277 200.758C190.559 200.934 190.878 201.095 191.235 201.241C191.599 201.382 191.968 201.528 192.343 201.681C192.718 201.833 193.084 202 193.441 202.182C193.805 202.363 194.127 202.58 194.408 202.832C194.689 203.078 194.915 203.368 195.085 203.702C195.261 204.036 195.349 204.432 195.349 204.889ZM205.623 197.849H202.222V208H200.64V197.849H197.238V196.513H205.623V197.849Z" fill="#8F70E7"/>
<rect x="347" y="5" width="17.084" height="14.9723" rx="4" fill="#FE8181"/>
<g clip-path="url(#clip1_179_847)">
<path d="M19.5754 5.2077H7.47426C7.26071 5.2077 7.11835 5.3379 7.11835 5.53319V16.9252H19.9313V5.53319C19.9313 5.3379 19.789 5.2077 19.5754 5.2077Z" fill="#CFD8DC"/>
<path d="M7.83014 7.48608H19.2195V16.2742H7.83014V7.48608Z" fill="#263238"/>
<path d="M12.813 12.2382C12.7774 12.5962 12.6706 12.8566 12.4571 13.0519C12.2435 13.2472 11.9588 13.3448 11.5673 13.3448C11.1758 13.3448 10.8555 13.2146 10.6419 12.9868C10.4284 12.7589 10.3216 12.4009 10.3216 11.9778V11.457C10.3216 11.0339 10.4284 10.6758 10.6419 10.448C10.8555 10.2202 11.1758 10.09 11.5673 10.09C11.9588 10.09 12.2435 10.1876 12.4571 10.3829C12.6706 10.5782 12.7774 10.8386 12.813 11.2292H12.1012C12.1012 11.0013 12.0656 10.8386 11.9944 10.7735C11.9232 10.6758 11.7809 10.6433 11.6029 10.6433C11.4249 10.6433 11.2826 10.7084 11.1758 10.8386C11.1046 10.9688 11.069 11.1641 11.0334 11.4245V12.0103C11.0334 12.3358 11.069 12.5311 11.1402 12.6613C11.2114 12.7915 11.3538 12.824 11.5317 12.824C11.7097 12.824 11.852 12.7915 11.9232 12.6938C11.9944 12.5962 12.03 12.466 12.03 12.2382H12.813Z" fill="#76FF03"/>
<path d="M13.5248 11.0664C13.5248 10.9687 13.5604 10.9036 13.6316 10.8386C13.7028 10.7735 13.774 10.7409 13.8808 10.7409C13.9875 10.7409 14.0587 10.7735 14.1299 10.8386C14.2011 10.9036 14.2367 10.9687 14.2367 11.0664C14.2367 11.164 14.2011 11.2291 14.1299 11.2942C14.0587 11.3593 13.9875 11.3919 13.8808 11.3919C13.774 11.3919 13.7028 11.3593 13.6316 11.2942C13.5604 11.2291 13.5248 11.164 13.5248 11.0664Z" fill="#76FF03"/>
<path d="M13.5248 13.0193C13.5248 12.9217 13.5604 12.8566 13.6316 12.7915C13.7028 12.7264 13.774 12.6938 13.8808 12.6938C13.9875 12.6938 14.0587 12.7264 14.1299 12.7915C14.2011 12.8566 14.2367 12.9217 14.2367 13.0193C14.2367 13.117 14.2011 13.1821 14.1299 13.2472C14.0587 13.3123 13.9875 13.3448 13.8808 13.3448C13.774 13.3448 13.7028 13.3123 13.6316 13.2472C13.5604 13.1821 13.5248 13.117 13.5248 13.0193Z" fill="#76FF03"/>
<path d="M14.9485 10.09H15.6603L16.7281 13.3448H16.0162L14.9485 10.09Z" fill="#76FF03"/>
<path d="M9.78766 6.83516C10.0825 6.83516 10.3215 6.61657 10.3215 6.34693C10.3215 6.07729 10.0825 5.8587 9.78766 5.8587C9.49281 5.8587 9.25378 6.07729 9.25378 6.34693C9.25378 6.61657 9.49281 6.83516 9.78766 6.83516Z" fill="#90A4AE"/>
<path d="M8.36401 6.83516C8.65886 6.83516 8.89789 6.61657 8.89789 6.34693C8.89789 6.07729 8.65886 5.8587 8.36401 5.8587C8.06916 5.8587 7.83014 6.07729 7.83014 6.34693C7.83014 6.61657 8.06916 6.83516 8.36401 6.83516Z" fill="#90A4AE"/>
</g>
<defs>
<clipPath id="clip0_179_847">
<rect width="32.0327" height="37.4065" fill="white" transform="translate(170.611 98.9263)"/>
</clipPath>
<clipPath id="clip1_179_847">
<rect width="12.813" height="11.7175" fill="white" transform="translate(7.11835 5.2077)"/>
</clipPath>
</defs>
</svg>
